<svg xmlns="http://www.w3.org/2000/svg" width="48" height="48" fill="none"><path fill="#2E2E2E" d="M23.997 45.52c-2.18 0-4.34-.64-6.04-1.9l-8.6-6.42c-2.28-1.7-4.06-5.26-4.06-8.08V14.24c0-3.08 2.26-6.36 5.16-7.44l9.98-3.74c1.98-.74 5.1-.74 7.08 0l9.98 3.74c2.9 1.08 5.16 4.36 5.16 7.44V29.1c0 2.84-1.78 6.38-4.06 8.08l-8.6 6.42c-1.66 1.28-3.82 1.92-6 1.92Zm-2.5-39.64-9.98 3.74c-1.7.64-3.2 2.8-3.2 4.64v14.86c0 1.9 1.34 4.56 2.84 5.68l8.6 6.42c2.3 1.72 6.18 1.72 8.5 0l8.6-6.42c1.52-1.14 2.84-3.78 2.84-5.68V14.24c0-1.82-1.5-3.98-3.2-4.64l-9.98-3.74c-1.36-.48-3.68-.48-5.02.02Z"/><path fill="#C63031" d="M21.317 28.46c-.38 0-.76-.14-1.06-.44l-3.22-3.22c-.58-.58-.58-1.54 0-2.12.58-.58 1.54-.58 2.12 0l2.16 2.16 7.54-7.54c.58-.58 1.54-.58 2.12 0 .58.58.58 1.54 0 2.12l-8.6 8.6c-.3.3-.68.44-1.06.44Z"/></svg>