<svg xmlns="http://www.w3.org/2000/svg" width="48" height="48" fill="none"><path fill="#C63031" d="M37 40.5h-8c-.82 0-1.5-.68-1.5-1.5s.68-1.5 1.5-1.5h8c.82 0 1.5.68 1.5 1.5s-.68 1.5-1.5 1.5Z"/><path fill="#C63031" d="M33 44.5c-.82 0-1.5-.68-1.5-1.5v-8c0-.82.68-1.5 1.5-1.5s1.5.68 1.5 1.5v8c0 .82-.68 1.5-1.5 1.5Z"/><path fill="#2E2E2E" d="M24.317 23.24h-.16c-.1-.02-.24-.02-.36 0-5.8-.18-10.18-4.74-10.18-10.36-.02-2.76 1.06-5.36 3.02-7.32s4.56-3.06 7.34-3.06c5.72 0 10.38 4.66 10.38 10.38 0 5.62-4.38 10.16-9.98 10.36h-.06Zm-.34-17.74c-1.98 0-3.82.78-5.22 2.16a7.356 7.356 0 0 0-2.14 5.2c0 4 3.12 7.24 7.1 7.36.12-.02.38-.02.64 0 3.94-.18 7-3.4 7-7.36 0-4.04-3.32-7.36-7.38-7.36ZM23.98 45.12c-4.08 0-7.94-1.06-10.86-3.02-2.78-1.86-4.3-4.4-4.3-7.14 0-2.74 1.54-5.26 4.3-7.1 5.98-4 15.7-4 21.68 0 .68.46.88 1.4.42 2.08-.46.7-1.4.88-2.08.42-4.98-3.32-13.38-3.32-18.36 0-1.92 1.28-2.96 2.9-2.96 4.6 0 1.7 1.04 3.36 2.96 4.64 2.42 1.62 5.68 2.5 9.18 2.5.82 0 1.5.68 1.5 1.5s-.66 1.52-1.48 1.52Z"/></svg>