<svg xmlns="http://www.w3.org/2000/svg" width="48" height="48" fill="none"><path fill="#C63031" d="M14 45.5H6c-.82 0-1.5-.68-1.5-1.5V20c0-3.44 1.76-5.5 4.7-5.5h1.6c2.94 0 4.7 2.06 4.7 5.5v24c0 .82-.68 1.5-1.5 1.5Zm-6.5-3h5V20c0-2.5-1.1-2.5-1.7-2.5H9.2c-.6 0-1.7 0-1.7 2.5v22.5ZM42 45.5h-8c-.82 0-1.5-.68-1.5-1.5V30c0-3.44 1.76-5.5 4.7-5.5h1.6c2.94 0 4.7 2.06 4.7 5.5v14c0 .82-.68 1.5-1.5 1.5Zm-6.5-3h5V30c0-2.5-1.1-2.5-1.7-2.5h-1.6c-.6 0-1.7 0-1.7 2.5v12.5Z"/><path fill="#2E2E2E" d="M44 45.5H4c-.82 0-1.5-.68-1.5-1.5s.68-1.5 1.5-1.5h40c.82 0 1.5.68 1.5 1.5s-.68 1.5-1.5 1.5Z"/><path fill="#2E2E2E" d="M28.5 45.5h-9c-.82 0-1.5-.68-1.5-1.5V8c0-3.44 1.9-5.5 5.1-5.5h1.8C28.1 2.5 30 4.56 30 8v36c0 .82-.68 1.5-1.5 1.5Zm-7.5-3h6V8c0-2.3-1.08-2.5-2.1-2.5h-1.8c-1.02 0-2.1.2-2.1 2.5v34.5Z"/></svg>