<svg xmlns="http://www.w3.org/2000/svg" width="48" height="48" fill="none"><path fill="#2E2E2E" d="M35.58 45.48H12.42c-5.48 0-9.92-4.46-9.92-9.94V20.72c0-2.72 1.68-6.14 3.84-7.82l10.78-8.4c3.24-2.52 8.42-2.64 11.78-.28l12.36 8.66c2.38 1.66 4.24 5.22 4.24 8.12v14.56c0 5.46-4.44 9.92-9.92 9.92ZM18.96 6.86l-10.78 8.4c-1.42 1.12-2.68 3.66-2.68 5.46v14.82c0 3.82 3.1 6.94 6.92 6.94h23.16c3.82 0 6.92-3.1 6.92-6.92V21c0-1.92-1.38-4.58-2.96-5.66L27.18 6.68c-2.28-1.6-6.04-1.52-8.22.18Z"/><path fill="#C63031" d="M15.003 34.5c-.38 0-.76-.14-1.06-.44-.58-.58-.58-1.54 0-2.12l6.4-6.4a1.482 1.482 0 0 1 2.3.22l2.18 3.28 7.1-7.1c.58-.58 1.54-.58 2.12 0 .58.58.58 1.54 0 2.12l-8.4 8.4a1.482 1.482 0 0 1-2.3-.22l-2.18-3.28-5.1 5.1c-.3.3-.68.44-1.06.44Z"/><path fill="#C63031" d="M33 28.5c-.82 0-1.5-.68-1.5-1.5v-2.5H29c-.82 0-1.5-.68-1.5-1.5s.68-1.5 1.5-1.5h4c.82 0 1.5.68 1.5 1.5v4c0 .82-.68 1.5-1.5 1.5Z"/></svg>