<svg xmlns="http://www.w3.org/2000/svg" width="48" height="48" fill="none"><path fill="#2E2E2E" d="M38 45.5c-.82 0-1.5-.68-1.5-1.5V22c0-.82.68-1.5 1.5-1.5s1.5.68 1.5 1.5v22c0 .82-.68 1.5-1.5 1.5ZM38 15.5c-.82 0-1.5-.68-1.5-1.5V4c0-.82.68-1.5 1.5-1.5s1.5.68 1.5 1.5v10c0 .82-.68 1.5-1.5 1.5Z"/><path fill="#C63031" d="M24 45.5c-.82 0-1.5-.68-1.5-1.5V34c0-.82.68-1.5 1.5-1.5s1.5.68 1.5 1.5v10c0 .82-.68 1.5-1.5 1.5ZM24 27.5c-.82 0-1.5-.68-1.5-1.5V4c0-.82.68-1.5 1.5-1.5s1.5.68 1.5 1.5v22c0 .82-.68 1.5-1.5 1.5Z"/><path fill="#2E2E2E" d="M10 45.5c-.82 0-1.5-.68-1.5-1.5V22c0-.82.68-1.5 1.5-1.5s1.5.68 1.5 1.5v22c0 .82-.68 1.5-1.5 1.5ZM10 15.5c-.82 0-1.5-.68-1.5-1.5V4c0-.82.68-1.5 1.5-1.5s1.5.68 1.5 1.5v10c0 .82-.68 1.5-1.5 1.5Z"/><path fill="#2E2E2E" d="M14 23.5H6c-.82 0-1.5-.68-1.5-1.5s.68-1.5 1.5-1.5h8c.82 0 1.5.68 1.5 1.5s-.68 1.5-1.5 1.5ZM42 23.5h-8c-.82 0-1.5-.68-1.5-1.5s.68-1.5 1.5-1.5h8c.82 0 1.5.68 1.5 1.5s-.68 1.5-1.5 1.5Z"/><path fill="#C63031" d="M28 27.5h-8c-.82 0-1.5-.68-1.5-1.5s.68-1.5 1.5-1.5h8c.82 0 1.5.68 1.5 1.5s-.68 1.5-1.5 1.5Z"/></svg>