<svg xmlns="http://www.w3.org/2000/svg" width="48" height="48" fill="none"><path fill="#2E2E2E" d="M32.98 45.5H15c-3.44 0-6.02-.92-7.62-2.74-1.6-1.82-2.22-4.46-1.8-7.88l1.8-15c.52-4.42 1.64-8.38 9.44-8.38h14.4c7.78 0 8.9 3.96 9.44 8.38l1.8 15c.4 3.42-.2 6.08-1.8 7.88-1.66 1.82-4.22 2.74-7.68 2.74Zm-16.18-31c-5.76 0-6.04 2.28-6.46 5.72l-1.8 15c-.3 2.54.06 4.4 1.08 5.54 1.02 1.14 2.82 1.72 5.38 1.72h17.98c2.56 0 4.36-.58 5.38-1.72 1.02-1.14 1.38-3 1.08-5.54l-1.8-15c-.42-3.46-.68-5.72-6.46-5.72H16.8Z"/><path fill="#C63031" d="M32 17.5c-.82 0-1.5-.68-1.5-1.5V9c0-2.16-1.34-3.5-3.5-3.5h-6c-2.16 0-3.5 1.34-3.5 3.5v7c0 .82-.68 1.5-1.5 1.5s-1.5-.68-1.5-1.5V9c0-3.82 2.68-6.5 6.5-6.5h6c3.82 0 6.5 2.68 6.5 6.5v7c0 .82-.68 1.5-1.5 1.5Z"/><path fill="#2E2E2E" d="M40.82 35.56H16c-.82 0-1.5-.68-1.5-1.5s.68-1.5 1.5-1.5h24.82c.82 0 1.5.68 1.5 1.5s-.68 1.5-1.5 1.5Z"/></svg>