<svg xmlns="http://www.w3.org/2000/svg" width="48" height="48" fill="none"><path fill="#C63031" d="M13.758 37.8c-.82 0-1.5-.68-1.5-1.5v-4.14c0-.82.68-1.5 1.5-1.5s1.5.68 1.5 1.5v4.14c0 .84-.68 1.5-1.5 1.5ZM24 37.8c-.82 0-1.5-.68-1.5-1.5V28c0-.82.68-1.5 1.5-1.5s1.5.68 1.5 1.5v8.3c0 .84-.68 1.5-1.5 1.5ZM34.242 37.8c-.82 0-1.5-.68-1.5-1.5V23.86c0-.82.68-1.5 1.5-1.5s1.5.68 1.5 1.5V36.3c0 .84-.66 1.5-1.5 1.5ZM13.763 26.36c-.68 0-1.28-.46-1.46-1.14-.2-.8.28-1.62 1.1-1.82 7.36-1.84 13.84-5.86 18.78-11.6l.92-1.08c.54-.62 1.48-.7 2.12-.16.62.54.7 1.48.16 2.12l-.92 1.08a39.027 39.027 0 0 1-20.34 12.56c-.12.04-.24.04-.36.04Z"/><path fill="#C63031" d="M34.243 19.04c-.82 0-1.5-.68-1.5-1.5V13.2h-4.36c-.82 0-1.5-.68-1.5-1.5s.68-1.5 1.5-1.5h5.86c.82 0 1.5.68 1.5 1.5v5.86c0 .82-.66 1.48-1.5 1.48Z"/><path fill="#2E2E2E" d="M30 45.5H18C7.14 45.5 2.5 40.86 2.5 30V18C2.5 7.14 7.14 2.5 18 2.5h12c10.86 0 15.5 4.64 15.5 15.5v12c0 10.86-4.64 15.5-15.5 15.5Zm-12-40C8.78 5.5 5.5 8.78 5.5 18v12c0 9.22 3.28 12.5 12.5 12.5h12c9.22 0 12.5-3.28 12.5-12.5V18c0-9.22-3.28-12.5-12.5-12.5H18Z"/></svg>