<svg xmlns="http://www.w3.org/2000/svg" width="48" height="48" fill="none"><path fill="#2E2E2E" d="M32 45.5H16C8.7 45.5 4.5 41.3 4.5 34V14C4.5 6.7 8.7 2.5 16 2.5h16c7.3 0 11.5 4.2 11.5 11.5v20c0 7.3-4.2 11.5-11.5 11.5Zm-16-40c-5.72 0-8.5 2.78-8.5 8.5v20c0 5.72 2.78 8.5 8.5 8.5h16c5.72 0 8.5-2.78 8.5-8.5V14c0-5.72-2.78-8.5-8.5-8.5H16Z"/><path fill="#C63031" d="M37 18.5h-4c-3.04 0-5.5-2.46-5.5-5.5V9c0-.82.68-1.5 1.5-1.5s1.5.68 1.5 1.5v4a2.5 2.5 0 0 0 2.5 2.5h4c.82 0 1.5.68 1.5 1.5s-.68 1.5-1.5 1.5ZM19.995 35.499c-.38 0-.76-.14-1.06-.44l-4-4a1.51 1.51 0 0 1 0-2.12l4-4c.58-.58 1.54-.58 2.12 0 .58.58.58 1.54 0 2.12l-2.94 2.94 2.94 2.94c.58.58.58 1.54 0 2.12-.3.3-.68.44-1.06.44ZM27.995 35.499c-.38 0-.76-.14-1.06-.44a1.51 1.51 0 0 1 0-2.12l2.94-2.94-2.94-2.94a1.51 1.51 0 0 1 0-2.12c.58-.58 1.54-.58 2.12 0l4 4c.58.58.58 1.54 0 2.12l-4 4c-.3.3-.68.44-1.06.44Z"/></svg>