<svg xmlns="http://www.w3.org/2000/svg" xmlns:xlink="http://www.w3.org/1999/xlink" fill="#fff" fill-rule="evenodd" stroke="#000" stroke-linecap="round" stroke-linejoin="round" viewBox="0 0 97 97"><style>.B{stroke-linejoin:miter}.C{stroke-width:3}.D{stroke-linecap:square}</style><use xlink:href="#F" x="1.5" y="1.5"/><defs><linearGradient id="A" x1="0%" x2="100%" y1="33%" y2="67%"><stop offset="3%" stop-color="#ff572d"/><stop offset="40%" stop-color="#ff8200"/><stop offset="88%" stop-color="#ff8a06"/></linearGradient><linearGradient id="B" x1="50%" x2="50%" y1="100%" y2="0%"><stop offset="0%" stop-color="#ff8a06"/><stop offset="88%" stop-color="#f90"/></linearGradient><linearGradient id="C" x1="50%" x2="50%" y1="0%" y2="100%"><stop offset="0%" stop-color="#ff8a06"/><stop offset="88%" stop-color="#f90"/></linearGradient><linearGradient id="D" x1="89%" x2="11%" y1="100%" y2="0%"><stop offset="0%" stop-color="#ff8a06"/><stop offset="88%" stop-color="#f90"/></linearGradient><linearGradient id="E" x1="0%" x2="100%" y1="0%" y2="100%"><stop offset="0%" stop-color="#ff8a06"/><stop offset="88%" stop-color="#f90"/></linearGradient></defs><symbol id="F" overflow="visible"><g fill="none"><g class="B C D"><path stroke="url(#A)" d="M45.5 46.5Q39.25 48.75 31 49C13.826 49 0 43.425 0 36.5m37.25 35.25Q34.5 72 31 72C13.826 72 0 66.425 0 59.5m62 22C62 88.425 48.174 94 31 94S0 88.425 0 81.5M62 14v24M0 13.75v66.5M0 12.5C0 5.575 13.826 0 31 0s31 5.575 31 12.5S48.174 25 31 25 0 19.425 0 12.5zM62 73v7.25"/><path stroke="url(#B)" d="m0 0 .4 12" transform="translate(72.1 69)"/><path stroke="url(#C)" d="m54.5 65.25 8.25-1.75"/><path stroke="url(#D)" d="m0 0 8 8.25" transform="translate(57.25 46.75)"/></g><g stroke="url(#E)"><ellipse cx="54.25" cy="44.029" class="B C" rx="3.75" ry="3.529"/><ellipse cx="72.75" cy="87.47" class="B C" rx="6.406" ry="6.029"/><ellipse cx="49.157" cy="67.096" class="B C" rx="5.094" ry="4.794"/><ellipse cx="86.344" cy="36.956" stroke-width="3.596" class="B" rx="5.094" ry="4.794"/><g class="C"><ellipse cx="71.149" cy="60.861" class="B" rx="8.383" ry="7.89"/><g class="D"><path d="m75.75 54 8-12.5M78.25 84.5 87 78.75" class="B"/></g><ellipse cx="90" cy="76.47" class="B" rx="3.75" ry="3.529"/></g></g></g></symbol></svg>