<svg xmlns="http://www.w3.org/2000/svg" xmlns:xlink="http://www.w3.org/1999/xlink" fill="#fff" fill-rule="evenodd" stroke="#000" stroke-linecap="round" stroke-linejoin="round" font-family="Roboto" font-size="14" text-anchor="middle" viewBox="0 0 164 176"><use xlink:href="#a" x=".5" y=".5"/><symbol id="a" overflow="visible"><g stroke="none"><path fill="#6b3a19" d="M34.863 75.472 14.539 39.86 0 75.885l20.652.083 14.211-.495z"/><path fill="#f58536" d="M35 75.5zm-1.548-.059L15 73.868V39l20.017 5.472v31.12z"/><path fill="#9d5025" d="m0 76 15-2.165V39L0 46.448V76z"/><path fill="#6b3a19" d="M92.86 69.898 73.068 71.57l-21.916-1.547L73.068 13.9 92.86 69.898z"/><path fill="#f58536" d="m93 70-20-2.328V0l20 10.767V70z"/><path fill="#9d5025" d="m51 70 22-2.312V0L51 10.855V70z"/><path fill="#6b3a19" d="M143.982 74.773 129.5 51.75l-19.475 23.061 14.289.657 19.668-.695z"/><path fill="#f58536" d="M143.965 74zm-1.277.563-12.75-1.779V51l14.063 4.614v19.145z"/><path fill="#9d5025" d="m110 74.75 20-1.915L129.998 51 110 54.539V74.75z"/><path fill="#fcbf92" d="m94.154 141.242-20.54-6.396-21.378 6.396 21.392 18.059 20.526-18.059z"/><path fill="#9d5025" d="m52 141 21 7.223V174l-21-10.929V141z"/><path fill="#f58534" d="m94 141-21 7.223V174l21-10.929V141z"/></g><g stroke="none"><path fill="#f58534" d="M143.996 88.019zM144 88l-70.972.026L73 130l71-18.375"/><path fill="#9d5025" d="m1 88 72 .026L72.969 130 1 111.629z"/></g></symbol></svg>