<svg xmlns="http://www.w3.org/2000/svg" xmlns:xlink="http://www.w3.org/1999/xlink" viewBox="0 0 74.375 85" fill="#fff" fill-rule="evenodd" stroke="#000" stroke-linecap="round" stroke-linejoin="round"><use xlink:href="#A" x="2.188" y="2.5"/><symbol id="A" overflow="visible"><g stroke="none"><path d="M8.447 29.053l7.892-1.502 9.392 8.634-9.392 6.8-7.892-.361V29.053z" fill="#8c3123"/><path d="M42.697 47.054L60.238 68.03 70 47.005l-16.38-.956-10.923 1.005zm-15.394 0L9.762 68.03 0 47.005l16.38-.956 10.923 1.005z" fill="#f2b0a9"/><path d="M70 47.005l-9.762 1.376V68.03L70 63.395v-16.39zM28.65 29.092l-12.311-1.541v15.434l12.311-.351V29.092z" fill="#e05243"/><path d="M41.227 29.093l12.311-1.561 6.7 8.283-6.7 7.181-12.311-.361V29.093z" fill="#8c3123"/><path d="M61.43 29.034l-7.892-1.502v15.463l7.892-.361v-13.6z" fill="#e05243"/><path d="M22.371 26.4L35 24l9.269 11.258L35 43.844l-12.629-.585V26.4z" fill="#8c3123"/><path d="M45.379 18.976l-10.44 2.312-10.44-2.312L35 0l10.379 18.976z" fill="#5e1f18"/><path d="M42.697 47.054l17.541 1.327V68.03l-17.541-4.488V47.054zM0 47.005l9.762 1.376V68.03L0 63.395v-16.39z" fill="#8c3123"/><path d="M27.303 47.054L9.762 48.381V68.03l17.541-4.488V47.054z" fill="#e05243"/><path d="M53.538 49.327L35 47.659l-18.538 1.668L35 80.001l18.538-30.673z" fill="#f2b0a9"/><path d="M53.538 49.327L35 51.951V80l18.538-8.79V49.327z" fill="#e05243"/><path d="M16.462 49.327L35 51.951V80l-18.538-8.79V49.327z" fill="#8c3123"/><path d="M47.506 26.39L35 24v19.844l12.506-.576V26.39zM45.379 4.956L35 0v16l10.379 2.976V4.956z" fill="#e05243"/><path d="M24.498 4.956L35 0v16l-10.502 2.976V4.956z" fill="#8c3123"/></g></symbol></svg>