<svg xmlns="http://www.w3.org/2000/svg" xmlns:xlink="http://www.w3.org/1999/xlink" fill="#fff" fill-rule="evenodd" stroke="#000" stroke-linecap="round" stroke-linejoin="round" viewBox="0 0 74.375 85"><use xlink:href="#a" x="2.188" y="2.5"/><symbol id="a" overflow="visible"><g stroke="none"><path fill="#8c3123" d="m8.447 29.053 7.892-1.502 9.392 8.634-9.392 6.8-7.892-.361V29.053z"/><path fill="#f2b0a9" d="M42.697 47.054 60.238 68.03 70 47.005l-16.38-.956-10.923 1.005zm-15.394 0L9.762 68.03 0 47.005l16.38-.956 10.923 1.005z"/><path fill="#e05243" d="m70 47.005-9.762 1.376V68.03L70 63.395v-16.39zM28.65 29.092l-12.311-1.541v15.434l12.311-.351V29.092z"/><path fill="#8c3123" d="m41.227 29.093 12.311-1.561 6.7 8.283-6.7 7.181-12.311-.361V29.093z"/><path fill="#e05243" d="m61.43 29.034-7.892-1.502v15.463l7.892-.361v-13.6z"/><path fill="#8c3123" d="M22.371 26.4 35 24l9.269 11.258L35 43.844l-12.629-.585V26.4z"/><path fill="#5e1f18" d="m45.379 18.976-10.44 2.312-10.44-2.312L35 0l10.379 18.976z"/><path fill="#8c3123" d="m42.697 47.054 17.541 1.327V68.03l-17.541-4.488V47.054zM0 47.005l9.762 1.376V68.03L0 63.395v-16.39z"/><path fill="#e05243" d="M27.303 47.054 9.762 48.381V68.03l17.541-4.488V47.054z"/><path fill="#f2b0a9" d="M53.538 49.327 35 47.659l-18.538 1.668L35 80.001l18.538-30.673z"/><path fill="#e05243" d="M53.538 49.327 35 51.951V80l18.538-8.79V49.327z"/><path fill="#8c3123" d="M16.462 49.327 35 51.951V80l-18.538-8.79V49.327z"/><path fill="#e05243" d="M47.506 26.39 35 24v19.844l12.506-.576V26.39zM45.379 4.956 35 0v16l10.379 2.976V4.956z"/><path fill="#8c3123" d="M24.498 4.956 35 0v16l-10.502 2.976V4.956z"/></g></symbol></svg>