<svg xmlns="http://www.w3.org/2000/svg" xmlns:xlink="http://www.w3.org/1999/xlink" viewBox="0 0 97 97" fill="#fff" fill-rule="evenodd" stroke="#000" stroke-linecap="round" stroke-linejoin="round"><style><![CDATA[.B{stroke-linejoin:miter}.C{stroke-width:3}.D{stroke-linecap:square}]]></style><use xlink:href="#F" x="1.5" y="1.5"/><defs><linearGradient id="A" x1="0%" y1="33%" x2="100%" y2="67%"><stop offset="3%" stop-color="#ff572d"/><stop offset="40%" stop-color="#ff8200"/><stop offset="88%" stop-color="#ff8a06"/></linearGradient><linearGradient id="B" x1="50%" y1="100%" x2="50%" y2="0%"><stop offset="0%" stop-color="#ff8a06"/><stop offset="88%" stop-color="#f90"/></linearGradient><linearGradient id="C" x1="50%" y1="0%" x2="50%" y2="100%"><stop offset="0%" stop-color="#ff8a06"/><stop offset="88%" stop-color="#f90"/></linearGradient><linearGradient id="D" x1="89%" y1="100%" x2="11%" y2="0%"><stop offset="0%" stop-color="#ff8a06"/><stop offset="88%" stop-color="#f90"/></linearGradient><linearGradient id="E" x1="0%" y1="0%" x2="100%" y2="100%"><stop offset="0%" stop-color="#ff8a06"/><stop offset="88%" stop-color="#f90"/></linearGradient></defs><symbol id="F" overflow="visible"><g fill="none"><g class="B C D"><path d="M45.5 46.5Q39.25 48.75 31 49C13.826 49 0 43.425 0 36.5m37.25 35.25Q34.5 72 31 72C13.826 72 0 66.425 0 59.5m62 22C62 88.425 48.174 94 31 94S0 88.425 0 81.5M62 14v24M0 13.75v66.5M0 12.5C0 5.575 13.826 0 31 0s31 5.575 31 12.5S48.174 25 31 25 0 19.425 0 12.5zM62 73v7.25" stroke="url(#A)"/><path d="M1e-13 1e-13L.4 12" stroke="url(#B)" transform="translate(72.1 69)"/><path d="M54.5 65.25l8.25-1.75" stroke="url(#C)"/><path d="M1e-13 1e-13l8 8.25" stroke="url(#D)" transform="translate(57.25 46.75)"/></g><g stroke="url(#E)"><ellipse cx="54.25" cy="44.029" rx="3.75" ry="3.529" class="B C"/><ellipse cx="72.75" cy="87.47" rx="6.406" ry="6.029" class="B C"/><ellipse cx="49.157" cy="67.096" rx="5.094" ry="4.794" class="B C"/><ellipse cx="86.344" cy="36.956" rx="5.094" ry="4.794" stroke-width="3.596" class="B"/><g class="C"><ellipse cx="71.149" cy="60.861" rx="8.383" ry="7.89" class="B"/><g class="D"><path d="M75.75 54l8-12.5" class="B"/><path d="M78.25 84.5L87 78.75" class="B"/></g><ellipse cx="90" cy="76.47" rx="3.75" ry="3.529" class="B"/></g></g></g></symbol></svg>