<svg xmlns="http://www.w3.org/2000/svg" xmlns:xlink="http://www.w3.org/1999/xlink" fill="#fff" fill-rule="evenodd" stroke="#000" stroke-linecap="round" stroke-linejoin="round" viewBox="0 0 74.375 85"><use xlink:href="#a" x="2.188" y="2.5"/><symbol id="a" overflow="visible"><g stroke="none"><path fill="#fcbf92" d="m53.626 61.6-18.631-3.902L16.364 61.6 34.995 80l18.631-18.4z"/><path fill="#6b3b19" d="M0 26.185 34.995 0 70 26.185l-35.005 4.049L0 26.185z"/><path fill="#f58534" d="M34.995 16.419 70 26.185v-9.619L34.995 0v16.419zm27.978 20.956-27.977-1.297v16l27.978-4V37.375z"/><path fill="#9d5025" d="m7.018 37.375 27.977-1.297v16l-27.977-4V37.375zm27.977-20.956L0 26.185v-9.619L34.995 0v16.419z"/><path fill="#f58534" d="m53.626 61.6-18.631 6.107V80l18.631-8.819V61.6z"/><path fill="#9d5025" d="m16.364 61.6 18.631 6.107V80l-18.631-8.82V61.6z"/></g></symbol></svg>