<svg xmlns="http://www.w3.org/2000/svg" xmlns:xlink="http://www.w3.org/1999/xlink" fill="#fff" fill-rule="evenodd" stroke="#000" stroke-linecap="round" stroke-linejoin="round" viewBox="0 0 81 81"><use xlink:href="#a" x=".5" y=".5"/><symbol id="a" overflow="visible"><g stroke="none"><path fill="#59b4d9" d="M79.84 47.134V27.735L57.92 46.813h-.48V27.735L35.52 46.813V6.894C35.52 3.527 28 .16 18.08.16S0 3.366 0 6.894V80h80l-.16-32.866zM18.08 10.1c-7.2 0-12.96-1.763-12.96-3.687s5.76-3.687 12.96-3.687 12.96 1.603 12.96 3.687c-.16 1.924-5.92 3.687-12.96 3.687zm37.76 56.914h-8.8v-8.818h8.8v8.818zm-15.52 0h-8.8v-8.818h8.8v8.818zm22.4 0v-8.818h8.8v8.818h-8.8z"/><path fill="#3999c6" d="M0 6.413h17.76V80H0z"/><path d="M35.36 6.413c0 3.527-8 6.413-17.76 6.413S0 9.94 0 6.413 8 0 17.76 0s17.6 2.726 17.6 6.413"/><path fill="#7fba00" d="M31.84 5.933c0 2.405-6.24 4.168-14.08 4.168S3.68 8.337 3.68 5.933s6.24-4.168 14.08-4.168 14.08 1.924 14.08 4.169"/><path fill="#b8d432" d="M28.8 8.498c1.92-.641 2.88-1.603 2.88-2.565 0-2.405-6.24-4.168-14.08-4.168S3.52 3.688 3.52 5.933c.16.962 1.28 1.924 3.04 2.565 2.56-.962 6.56-1.603 11.2-1.603 4.48 0 8.48.641 11.04 1.603"/></g></symbol></svg>