<svg xmlns="http://www.w3.org/2000/svg" xmlns:xlink="http://www.w3.org/1999/xlink" fill="#fff" fill-rule="evenodd" stroke="#000" stroke-linecap="round" stroke-linejoin="round" viewBox="0 0 82 81"><use xlink:href="#a" x=".5" y=".5"/><symbol id="a" overflow="visible"><g fill="#006fd4" stroke="none"><use xlink:href="#b"/><path d="M68.861 44.03c0 .786-.608 1.376-1.418 1.376H56.709c-.81 0-1.418-.59-1.418-1.376v-7.666c0-.786.608-1.376 1.418-1.376h10.734c.81 0 1.418.59 1.418 1.376v7.666z"/><use xlink:href="#b" y="15.921"/><path d="M30.38 27.912c0 .786-.607 1.376-1.418 1.376H18.026c-.81 0-1.418-.59-1.418-1.376v-8.059c0-.786.608-1.376 1.418-1.376H28.76c1.013 0 1.62.59 1.62 1.376v8.059zM78.38 0H1.418C.608 0 0 .59 0 1.376v15.921c0 .786.608 1.376 1.418 1.376h8.304c.81 0 1.418-.59 1.418-1.376v-6.683h57.722v6.683c0 .786.608 1.376 1.62 1.376h7.899c.81 0 1.418-.59 1.418-1.376V1.179C79.797.393 79.19 0 78.38 0zm0 61.524h-7.899c-.81 0-1.418.59-1.418 1.376v6.486H11.14v-6.683c0-.786-.607-1.376-1.62-1.376H1.621c-.81 0-1.418.59-1.418 1.572v15.725C.203 79.41.811 80 1.621 80h76.96c.81 0 1.418-.59 1.418-1.376V62.899c-.203-.786-.81-1.376-1.62-1.376z"/><use xlink:href="#c"/><use xlink:href="#c" y="15.921"/></g></symbol><defs><path id="b" d="M49.621 35.971c0 .786-.608 1.376-1.418 1.376H37.469c-.81 0-1.418-.59-1.418-1.376v-7.666c0-.786.608-1.376 1.418-1.376h10.734c.81 0 1.418.59 1.418 1.376v7.666z"/><path id="c" d="M30.178 43.833c0 .786-.608 1.376-1.418 1.376H18.026c-.81 0-1.418-.59-1.418-1.376v-7.666c0-.786.608-1.376 1.418-1.376H28.76c.81 0 1.418.59 1.418 1.376v7.666z"/></defs></svg>