<svg xmlns="http://www.w3.org/2000/svg" xmlns:xlink="http://www.w3.org/1999/xlink" fill="#fff" fill-rule="evenodd" stroke="#000" stroke-linecap="round" stroke-linejoin="round" viewBox="0 0 106 81"><use xlink:href="#a" x=".5" y=".5"/><symbol id="a" overflow="visible"><path fill="#006fd4" stroke="none" d="m90.827 54.384 2.795-6.306L105 44.138v-9.064l-1.198-.394-9.981-3.35-2.795-6.305 5.191-10.64-6.388-6.305-1.397.788-9.382 4.729-6.388-2.759L68.47 0h-9.382l-.399 1.182-3.394 9.655-6.388 2.759-10.979-4.729-6.388 6.305.599 1.182 2.994 5.517c5.19-2.956 10.779-4.138 16.768-4.138 8.185.394 15.77 3.35 21.559 8.67 1.198.985 2.794 1.773 3.992 3.35.599.591 1.198 1.577 1.597 2.365 3.993 6.897 2.395 15.567-4.192 20.69-4.791 3.941-11.578 4.532-16.768 2.365-.599-.394-.998-.394-1.198-.591a14.96 14.96 0 0 1-3.593-2.562c-.399 0-.599-.394-1.198-.394-1.198 0-2.794.591-3.593 1.576l-.399.394c-3.992 3.941-8.583 6.896-13.375 8.473l-3.194 3.35 6.188 6.108.399.394 1.198-.591 9.382-4.729 6.387 2.562L58.689 80h9.382l.399-1.182 3.394-9.655 6.388-2.759 10.979 4.729 6.388-6.306v-1.379l-4.791-9.064zm-56.293-15.96c-7.186 7.488-18.565 7.488-25.551-.394-.599-.985-2.396-.985-2.994 0-.399.394-.599.985-.599 1.577s.399 1.182.599 1.576c8.583 9.261 22.557 9.655 31.34.591v-.394c7.186-7.094 18.365-7.094 25.152.591.998.985 2.395.985 2.994 0 .399-.394.599-.985.599-1.576s-.399-1.182-.599-1.576c-8.184-9.261-22.158-9.458-30.941-.394zm15.571 3.744c-3.992 0-7.186 1.182-9.981 4.138l-.399.394-.399.394c-4.791 5.123-11.578 7.882-18.365 7.488-6.987 0-13.175-3.35-17.966-8.473-.998-.985-2.395-.985-2.994 0v1.576c0 .591.399 1.182.599 1.576 5.59 6.108 12.976 9.655 20.96 9.655 7.985.394 15.171-2.956 21.359-9.064l.399-.394.399-.394c1.797-1.773 4.192-2.956 6.986-2.956s4.791 1.182 6.987 3.35c.998.985 2.395.985 2.995 0 .399-.394.598-.985.598-1.576s-.399-1.182-.598-1.577c-2.995-2.561-6.588-4.138-10.58-4.138zm21.359-11.035c-5.589-6.108-13.175-9.655-20.96-9.655s-15.171 2.956-21.359 9.064l-.399.394-.399.394c-1.797 1.773-4.192 2.956-6.987 2.956s-4.591-1.379-6.787-3.35c-.998-.985-2.396-.985-2.994 0-.399.394-.599.985-.599 1.576s.399 1.182.599 1.576c2.794 2.956 6.188 4.532 9.781 4.532 3.992 0 7.186-1.182 9.981-4.138l.399-.394s.399 0 .399-.394c4.791-5.123 11.578-7.882 18.365-7.882 6.986 0 13.175 3.35 17.567 8.473.998.985 2.395.985 2.994 0 .399-.394.599-.985.599-1.576.399-.591 0-1.182-.2-1.576z"/></symbol></svg>