<svg width="48" height="48" fill="none" xmlns="http://www.w3.org/2000/svg"><path fill-rule="evenodd" clip-rule="evenodd" d="M19.486 11.926a16.23 16.23 0 0 0-.864.825c-6.102 6.272-6.171 16.37-.153 22.555 6.017 6.185 15.843 6.114 21.945-.158 6.103-6.272 6.172-16.37.154-22.555A15.043 15.043 0 0 0 29.754 8v2a13.062 13.062 0 0 1 9.38 3.988c5.245 5.39 5.212 14.252-.153 19.765-5.336 5.485-13.865 5.516-19.079.158-5.245-5.39-5.211-14.252.154-19.766.246-.252.498-.494.757-.723l-1.327-1.496Z" fill="#2E2E2E"/><path d="M8 32a1 1 0 1 0 0 2v-2Zm9 2h1v-2h-1v2Zm-9 0h9v-2H8v2Z" fill="#2E2E2E"/><path d="M15 21H3M15 27H3" stroke="#2E2E2E" stroke-width="2" stroke-linecap="round"/><path d="M8 14a1 1 0 1 0 0 2v-2Zm9 2h1v-2h-1v2Zm-9 0h9v-2H8v2Z" fill="#2E2E2E"/><path d="M23 21.571 28.833 28 37 19" stroke="#C63031" stroke-width="2"/></svg>