<svg width="49" height="48" fill="none" xmlns="http://www.w3.org/2000/svg"><path d="M8.664 24h5.79c2.325 0 4.21-1.79 4.21-4v-2M35.664 20H28.05c-1.87 0-3.385 1.79-3.385 4v1.5M35.664 16h-7.652c-1.435 0-3.348 0-3.348-2.381V12" stroke="#2E2E2E" stroke-width="2"/><circle cx="22.022" cy="18.358" r="14.358" stroke="#2E2E2E" stroke-width="2"/><path d="m29.095 31.656 3.01-2.253 8.557 11.428a1 1 0 0 1-.2 1.4l-1.409 1.055a1 1 0 0 1-1.4-.201l-8.558-11.429ZM31.617 34.676l2.4-1.92" stroke="#2E2E2E" stroke-width="2"/><circle cx="24.387" cy="26.723" r="2.218" transform="rotate(-45 24.387 26.723)" stroke="#C63031" stroke-width="2"/><circle cx="24.387" cy="9.723" r="2.218" transform="rotate(-45 24.387 9.723)" stroke="#C63031" stroke-width="2"/><path d="M15.664 16h-8" stroke="#2E2E2E" stroke-width="2"/><circle cx="18.387" cy="15.723" r="2.218" transform="rotate(-45 18.387 15.723)" stroke="#C63031" stroke-width="2"/></svg>