<svg width="49" height="48" fill="none" xmlns="http://www.w3.org/2000/svg"><path d="M8.664 20h5.21c2.093 0 3.79-1.79 3.79-4v-2M40.664 20h-5.21c-2.093 0-3.79-1.79-3.79-4v-2M24.664 28h-2a4 4 0 0 0-4 4v2" stroke="#C63031" stroke-width="2"/><path d="M24.664 28h2a4 4 0 0 1 4 4v2M25.664 20h-5M24.664 20h4M13.664 29h-5" stroke="#2E2E2E" stroke-width="2"/><path d="M36.664 29h4" stroke="#C63031" stroke-width="2"/><path d="M7.664 18c0-6.627 5.373-12 12-12h2a3 3 0 0 1 3 3v30a3 3 0 0 1-3 3h-2c-6.627 0-12-5.373-12-12V18ZM41.664 18c0-6.627-5.373-12-12-12h-2a3 3 0 0 0-3 3v30a3 3 0 0 0 3 3h2c6.627 0 12-5.373 12-12V18Z" stroke="#2E2E2E" stroke-width="2"/></svg>