<svg width="49" height="48" fill="none" xmlns="http://www.w3.org/2000/svg"><path d="M25.336 9a1 1 0 1 0-2 0h2Zm-2 30v1h2v-1h-2Zm0-30v30h2V9h-2ZM40.336 9a1 1 0 1 0-2 0h2Zm-2 4v1h2v-1h-2Zm0-4v4h2V9h-2ZM10.336 9a1 1 0 1 0-2 0h2Zm-2 4v1h2v-1h-2Zm0-4v4h2V9h-2Z" fill="#2E2E2E"/><path d="M9.336 9h30" stroke="#2E2E2E" stroke-width="2" stroke-linecap="round"/><path d="m4.245 21.985 4.196-6.993a1 1 0 0 1 1.733.033l3.847 6.993a1 1 0 0 1-.876 1.482H5.102a1 1 0 0 1-.857-1.515ZM34.245 21.985l4.196-6.993a1 1 0 0 1 1.733.033l3.847 6.993a1 1 0 0 1-.876 1.482h-8.043a1 1 0 0 1-.857-1.515Z" stroke="#C63031" stroke-width="2"/><path d="M34.336 23c0 1.5 1.8 4 5 4s4.5-3 4.5-4M4.336 23c0 1.5 1.8 4 5 4s4.5-3 4.5-4" stroke="#C63031" stroke-width="2"/><path d="M14.336 39h19" stroke="#2E2E2E" stroke-width="2" stroke-linecap="square"/></svg>