<svg width="41" height="40" fill="none" xmlns="http://www.w3.org/2000/svg"><path fill-rule="evenodd" clip-rule="evenodd" d="M32.571 26a13.908 13.908 0 0 1-2.614 3.62c-5.376 5.376-13.993 5.408-19.246.155A13.28 13.28 0 0 1 8.063 26H5.884a15.266 15.266 0 0 0 3.413 5.189c6.053 6.053 15.936 5.984 22.074-.154A15.865 15.865 0 0 0 34.773 26H32.57Zm.891-10h2.076a15.265 15.265 0 0 0-4.012-7.04c-6.053-6.053-15.937-5.984-22.075.154A15.818 15.818 0 0 0 5.398 16h2.09a13.835 13.835 0 0 1 3.377-5.472c5.376-5.376 13.993-5.407 19.247-.154A13.274 13.274 0 0 1 33.462 16Z" fill="#2E2E2E"/><path d="M9.336 20.5h4.84a1 1 0 0 1 .92.606l1.789 4.175c.35.819 1.517.805 1.848-.022l4.144-10.363c.34-.848 1.545-.835 1.865.02l1.85 4.935a1 1 0 0 0 .937.649h3.807" stroke="#C63031" stroke-width="2" stroke-linecap="round"/><circle cx="6.457" cy="21.121" r="2.5" transform="rotate(-45 6.457 21.121)" stroke="#C63031" stroke-width="2"/><circle cx="34.457" cy="21.121" r="2.5" transform="rotate(-45 34.457 21.121)" stroke="#C63031" stroke-width="2"/></svg>