<svg width="49" height="48" viewBox="0 0 49 48" fill="none" xmlns="http://www.w3.org/2000/svg">
<path d="M8.66406 20H13.8746C15.9675 20 17.6641 18.2091 17.6641 16V14" stroke="#C63031" stroke-width="2"/>
<path d="M40.6641 20H35.4535C33.3607 20 31.6641 18.2091 31.6641 16V14" stroke="#C63031" stroke-width="2"/>
<path d="M24.6641 28H22.6641C20.4549 28 18.6641 29.7909 18.6641 32V34" stroke="#C63031" stroke-width="2"/>
<path d="M24.6641 28H26.6641C28.8732 28 30.6641 29.7909 30.6641 32V34" stroke="#2E2E2E" stroke-width="2"/>
<path d="M25.6641 20H20.6641" stroke="#2E2E2E" stroke-width="2"/>
<path d="M24.6641 20H28.6641" stroke="#2E2E2E" stroke-width="2"/>
<path d="M13.6641 29H8.66406" stroke="#2E2E2E" stroke-width="2"/>
<path d="M36.6641 29H40.6641" stroke="#C63031" stroke-width="2"/>
<path d="M7.66406 18C7.66406 11.3726 13.0366 6 19.6641 6H21.6641C23.3209 6 24.6641 7.34315 24.6641 9V39C24.6641 40.6569 23.3209 42 21.6641 42H19.6641C13.0366 42 7.66406 36.6274 7.66406 30V18Z" stroke="#2E2E2E" stroke-width="2"/>
<path d="M41.6641 18C41.6641 11.3726 36.2915 6 29.6641 6H27.6641C26.0072 6 24.6641 7.34315 24.6641 9V39C24.6641 40.6569 26.0072 42 27.6641 42H29.6641C36.2915 42 41.6641 36.6274 41.6641 30V18Z" stroke="#2E2E2E" stroke-width="2"/>
</svg>
