<svg xmlns="http://www.w3.org/2000/svg" width="34" height="29" fill="none"><rect x="1" y="25" width="24" height="32" rx="2" transform="rotate(-90 1 25)" stroke="#2E2E2E" stroke-width="2"/><path stroke="#2E2E2E" stroke-width="2" d="M6 28h22"/><mask id="a" fill="#fff"><path fill-rule="evenodd" clip-rule="evenodd" d="M22.543 14.022A6 6 0 0 1 23 16.318H11a6 6 0 0 1 11.543-2.296Zm-7.043.04a.75.75 0 1 1-1.5 0 .75.75 0 0 1 1.5 0Zm4.5 0a.75.75 0 1 1-1.5 0 .75.75 0 0 1 1.5 0Z"/></mask><path fill-rule="evenodd" clip-rule="evenodd" d="M22.543 14.022A6 6 0 0 1 23 16.318H11a6 6 0 0 1 11.543-2.296Zm-7.043.04a.75.75 0 1 1-1.5 0 .75.75 0 0 1 1.5 0Zm4.5 0a.75.75 0 1 1-1.5 0 .75.75 0 0 1 1.5 0Z" fill="#C63031"/><path d="M23 16.318v2h2v-2h-2Zm-.457-2.296-1.848.766 1.848-.766ZM11 16.318H9v2h2v-2Zm.457-2.296-1.848-.765 1.848.765Zm1.3-1.946-1.414-1.415 1.414 1.415Zm1.947-1.3.765 1.847-.765-1.848Zm4.592 0 .765-1.849-.765 1.848Zm1.947 1.3 1.414-1.415-1.414 1.415ZM25 16.318c0-1.05-.207-2.09-.609-3.061l-3.695 1.53A4 4 0 0 1 21 16.319h4Zm-14 2h12v-4H11v4Zm-1.391-5.061A8 8 0 0 0 9 16.318h4a4 4 0 0 1 .305-1.53l-3.696-1.531Zm1.734-2.595a8.001 8.001 0 0 0-1.734 2.595l3.696 1.53a4 4 0 0 1 .867-1.297l-2.829-2.829Zm2.595-1.735a8 8 0 0 0-2.595 1.735l2.829 2.828a4.002 4.002 0 0 1 1.297-.867l-1.53-3.696ZM17 8.318a8 8 0 0 0-3.062.61l1.531 3.695A4 4 0 0 1 17 12.318v-4Zm3.061.61A8 8 0 0 0 17 8.317v4a4 4 0 0 1 1.53.305l1.531-3.696Zm2.596 1.733a8 8 0 0 0-2.596-1.734l-1.53 3.696c.485.2.926.495 1.297.867l2.829-2.829Zm1.734 2.596a8 8 0 0 0-1.734-2.595l-2.829 2.828a4 4 0 0 1 .867 1.298l3.696-1.531Zm-9.641 3.556a2.75 2.75 0 0 0 2.75-2.75h-4c0-.69.56-1.25 1.25-1.25v4ZM12 14.063a2.75 2.75 0 0 0 2.75 2.75v-4c.69 0 1.25.56 1.25 1.25h-4Zm2.75-2.75a2.75 2.75 0 0 0-2.75 2.75h4c0 .69-.56 1.25-1.25 1.25v-4Zm2.75 2.75a2.75 2.75 0 0 0-2.75-2.75v4c-.69 0-1.25-.56-1.25-1.25h4Zm1.75 2.75a2.75 2.75 0 0 0 2.75-2.75h-4c0-.69.56-1.25 1.25-1.25v4Zm-2.75-2.75a2.75 2.75 0 0 0 2.75 2.75v-4c.69 0 1.25.56 1.25 1.25h-4Zm2.75-2.75a2.75 2.75 0 0 0-2.75 2.75h4c0 .69-.56 1.25-1.25 1.25v-4Zm2.75 2.75a2.75 2.75 0 0 0-2.75-2.75v4c-.69 0-1.25-.56-1.25-1.25h4Z" fill="#C63031" mask="url(#a)"/><path fill-rule="evenodd" clip-rule="evenodd" d="M13.11 9.469a.75.75 0 0 1 1.054.117l1.874 2.342a.75.75 0 1 1-1.171.937l-1.875-2.342a.75.75 0 0 1 .118-1.054ZM21.07 9.469a.75.75 0 0 0-1.054.117l-1.874 2.342a.75.75 0 1 0 1.171.937l1.874-2.342a.75.75 0 0 0-.117-1.054Z" fill="#C63031"/></svg>