<svg xmlns="http://www.w3.org/2000/svg" width="32" height="36" fill="none"><rect x="1" y="1" width="30" height="34" rx="3" stroke="#2E2E2E" stroke-width="2"/><rect x="13.5" y="3.5" width="5" height="1" rx=".5" stroke="#2E2E2E"/><rect x="15" y="30" width="2" height="2" rx="1" stroke="#2E2E2E" stroke-width="2"/><mask id="a" fill="#fff"><path fill-rule="evenodd" clip-rule="evenodd" d="M21.543 18.993A6 6 0 0 1 22 21.289H10a6 6 0 0 1 11.543-2.296Zm-7.043.04a.75.75 0 1 1-1.5 0 .75.75 0 0 1 1.5 0Zm4.5 0a.75.75 0 1 1-1.5 0 .75.75 0 0 1 1.5 0Z"/></mask><path fill-rule="evenodd" clip-rule="evenodd" d="M21.543 18.993A6 6 0 0 1 22 21.289H10a6 6 0 0 1 11.543-2.296Zm-7.043.04a.75.75 0 1 1-1.5 0 .75.75 0 0 1 1.5 0Zm4.5 0a.75.75 0 1 1-1.5 0 .75.75 0 0 1 1.5 0Z" fill="#C63031"/><path d="M22 21.29v2h2v-2h-2Zm-.457-2.297-1.848.765 1.848-.765ZM10 21.289H8v2h2v-2Zm.457-2.296-1.848-.765 1.848.765Zm1.3-1.947-1.414-1.414 1.414 1.414Zm1.947-1.3.765 1.847-.765-1.847Zm4.592 0 .765-1.848-.765 1.848Zm1.947 1.3 1.414-1.414-1.414 1.414ZM24 21.29c0-1.05-.207-2.09-.609-3.061l-3.695 1.53A4 4 0 0 1 20 21.29h4Zm-14 2h12v-4H10v4Zm-1.391-5.061A8 8 0 0 0 8 21.289h4a4 4 0 0 1 .305-1.53l-3.696-1.531Zm1.734-2.596a8.001 8.001 0 0 0-1.734 2.596l3.696 1.53a4 4 0 0 1 .867-1.297l-2.829-2.829Zm2.595-1.734a8.001 8.001 0 0 0-2.595 1.734l2.829 2.829a4.002 4.002 0 0 1 1.297-.867l-1.53-3.696ZM16 13.289a8 8 0 0 0-3.062.609l1.531 3.695A4 4 0 0 1 16 17.29v-4Zm3.061.609A8 8 0 0 0 16 13.289v4a4 4 0 0 1 1.53.304l1.531-3.695Zm2.596 1.734a8.001 8.001 0 0 0-2.596-1.734l-1.53 3.695c.485.202.926.496 1.297.868l2.829-2.829Zm1.734 2.596a8 8 0 0 0-1.734-2.596l-2.829 2.829a4 4 0 0 1 .867 1.297l3.696-1.53Zm-9.641 3.555a2.75 2.75 0 0 0 2.75-2.75h-4c0-.69.56-1.25 1.25-1.25v4ZM11 19.033a2.75 2.75 0 0 0 2.75 2.75v-4c.69 0 1.25.56 1.25 1.25h-4Zm2.75-2.75a2.75 2.75 0 0 0-2.75 2.75h4c0 .69-.56 1.25-1.25 1.25v-4Zm2.75 2.75a2.75 2.75 0 0 0-2.75-2.75v4c-.69 0-1.25-.56-1.25-1.25h4Zm1.75 2.75a2.75 2.75 0 0 0 2.75-2.75h-4c0-.69.56-1.25 1.25-1.25v4Zm-2.75-2.75a2.75 2.75 0 0 0 2.75 2.75v-4c.69 0 1.25.56 1.25 1.25h-4Zm2.75-2.75a2.75 2.75 0 0 0-2.75 2.75h4c0 .69-.56 1.25-1.25 1.25v-4Zm2.75 2.75a2.75 2.75 0 0 0-2.75-2.75v4c-.69 0-1.25-.56-1.25-1.25h4Z" fill="#C63031" mask="url(#a)"/><path fill-rule="evenodd" clip-rule="evenodd" d="M12.11 14.44a.75.75 0 0 1 1.054.116l1.874 2.343a.75.75 0 1 1-1.171.937l-1.875-2.343a.75.75 0 0 1 .118-1.054ZM20.07 14.44a.75.75 0 0 0-1.054.116L17.142 16.9a.75.75 0 1 0 1.171.937l1.874-2.343a.75.75 0 0 0-.117-1.054Z" fill="#C63031"/></svg>