<svg xmlns="http://www.w3.org/2000/svg" width="20" height="30" fill="none"><mask id="a" fill="#fff"><path fill-rule="evenodd" clip-rule="evenodd" d="M6.417 0a3 3 0 0 0-2.965 2.544l-.29 1.881c-.145.943.882 1.73 1.835 1.73h10c.953 0 1.98-.787 1.835-1.73l-.29-1.881A3 3 0 0 0 13.577 0h-7.16Zm10.415 25.575c.144-.942-.882-1.728-1.835-1.728h-10c-.953 0-1.98.786-1.835 1.728l.29 1.881A3 3 0 0 0 6.417 30h7.16a3 3 0 0 0 2.965-2.544l.29-1.881Z"/></mask><path d="M3.452 2.544 1.475 2.24l1.977.304Zm13.09 0-1.977.304 1.977-.304ZM3.452 27.456l-1.977.304 1.977-.304Zm13.09 0-1.977-.304 1.977.304ZM5.428 2.848A1 1 0 0 1 6.417 2v-4a5 5 0 0 0-4.942 4.24l3.953.608Zm-.29 1.882.29-1.882-3.953-.608-.29 1.881 3.954.609Zm-.14 3.424h10v-4h-10v4Zm9.567-5.306.29 1.882 3.953-.608-.29-1.882-3.953.608ZM13.577 2a1 1 0 0 1 .988.848l3.954-.608A5 5 0 0 0 13.577-2v4Zm-7.16 0h7.16v-4h-7.16v4Zm8.58 19.847h-10v4h10v-4Zm-9.569 5.305-.289-1.88-3.953.608.289 1.88 3.953-.608Zm.989.848a1 1 0 0 1-.989-.848l-3.953.608A5 5 0 0 0 6.417 32v-4Zm7.16 0h-7.16v4h7.16v-4Zm.988-.848a1 1 0 0 1-.988.848v4a5 5 0 0 0 4.942-4.24l-3.954-.608Zm.29-1.881-.29 1.881 3.954.608.29-1.881-3.954-.608Zm-9.858-3.424c-.99 0-1.947.391-2.65 1.009-.71.624-1.366 1.691-1.161 3.023l3.953-.608a.811.811 0 0 1-.055.442.426.426 0 0 1-.096.147c-.005.005.004-.004.023-.011.02-.008.018-.002-.014-.002v-4Zm10 4c-.032 0-.034-.006-.014.002.02.007.028.015.022.01a.425.425 0 0 1-.096-.146.811.811 0 0 1-.054-.442l3.953.608c.205-1.332-.451-2.399-1.161-3.024a4.072 4.072 0 0 0-2.65-1.008v4Zm0-17.693c.99 0 1.948-.392 2.65-1.009.71-.624 1.366-1.691 1.161-3.023l-3.953.608a.811.811 0 0 1 .054-.442.426.426 0 0 1 .097-.147c.005-.005-.004.004-.023.011-.02.008-.018.002.014.002v4ZM1.185 4.121c-.204 1.332.452 2.4 1.162 3.024a4.073 4.073 0 0 0 2.65 1.01v-4c.032 0 .034.005.014-.003-.02-.008-.028-.016-.023-.011a.425.425 0 0 1 .096.146c.05.112.082.27.055.443L1.185 4.12Z" fill="#2E2E2E" mask="url(#a)"/><rect x="1" y="5.615" width="18" height="18.769" rx="2" stroke="#2E2E2E" stroke-width="2"/><mask id="b" fill="#fff"><path fill-rule="evenodd" clip-rule="evenodd" d="M15.543 16.022A6 6 0 0 1 16 18.318H4a6 6 0 0 1 11.543-2.296Zm-7.043.04a.75.75 0 1 1-1.5 0 .75.75 0 0 1 1.5 0Zm4.5 0a.75.75 0 1 1-1.5 0 .75.75 0 0 1 1.5 0Z"/></mask><path fill-rule="evenodd" clip-rule="evenodd" d="M15.543 16.022A6 6 0 0 1 16 18.318H4a6 6 0 0 1 11.543-2.296Zm-7.043.04a.75.75 0 1 1-1.5 0 .75.75 0 0 1 1.5 0Zm4.5 0a.75.75 0 1 1-1.5 0 .75.75 0 0 1 1.5 0Z" fill="#C63031"/><path d="M16 18.318v2h2v-2h-2Zm-.457-2.296-1.848.766 1.848-.766ZM4 18.318H2v2h2v-2Zm.457-2.296-1.848-.765 1.848.765Zm1.3-1.946L4.343 12.66l1.414 1.415Zm1.947-1.3.765 1.847-.765-1.848Zm4.592 0 .766-1.849-.766 1.848Zm1.947 1.3 1.414-1.415-1.414 1.415ZM18 18.318c0-1.05-.207-2.09-.609-3.061l-3.695 1.53A4 4 0 0 1 14 18.319h4Zm-14 2h12v-4H4v4Zm-1.391-5.061A8 8 0 0 0 2 18.318h4a4 4 0 0 1 .304-1.53L2.61 15.257Zm1.734-2.595a8 8 0 0 0-1.734 2.595l3.695 1.53a4 4 0 0 1 .868-1.297L4.343 12.66Zm2.596-1.735a8 8 0 0 0-2.596 1.735l2.829 2.828a4.002 4.002 0 0 1 1.297-.867l-1.53-3.696ZM10 10.318a8 8 0 0 0-3.061.61l1.53 3.695A4 4 0 0 1 10 14.318v-4Zm3.062.61a8 8 0 0 0-3.062-.61v4a4 4 0 0 1 1.53.305l1.532-3.696Zm2.595 1.733a8.001 8.001 0 0 0-2.595-1.734l-1.531 3.696c.485.2.926.495 1.297.867l2.829-2.829Zm1.734 2.596a8 8 0 0 0-1.734-2.595l-2.829 2.828a4 4 0 0 1 .867 1.298l3.696-1.531ZM7.75 18.813a2.75 2.75 0 0 0 2.75-2.75h-4c0-.69.56-1.25 1.25-1.25v4ZM5 16.063a2.75 2.75 0 0 0 2.75 2.75v-4c.69 0 1.25.56 1.25 1.25H5Zm2.75-2.75A2.75 2.75 0 0 0 5 16.063h4c0 .69-.56 1.25-1.25 1.25v-4Zm2.75 2.75a2.75 2.75 0 0 0-2.75-2.75v4c-.69 0-1.25-.56-1.25-1.25h4Zm1.75 2.75a2.75 2.75 0 0 0 2.75-2.75h-4c0-.69.56-1.25 1.25-1.25v4Zm-2.75-2.75a2.75 2.75 0 0 0 2.75 2.75v-4c.69 0 1.25.56 1.25 1.25h-4Zm2.75-2.75a2.75 2.75 0 0 0-2.75 2.75h4c0 .69-.56 1.25-1.25 1.25v-4Zm2.75 2.75a2.75 2.75 0 0 0-2.75-2.75v4c-.69 0-1.25-.56-1.25-1.25h4Z" fill="#C63031" mask="url(#b)"/><path fill-rule="evenodd" clip-rule="evenodd" d="M6.11 11.469a.75.75 0 0 1 1.054.117l1.874 2.342a.75.75 0 1 1-1.171.937l-1.874-2.342a.75.75 0 0 1 .117-1.054ZM14.07 11.469a.75.75 0 0 0-1.054.117l-1.874 2.342a.75.75 0 1 0 1.171.937l1.874-2.342a.75.75 0 0 0-.117-1.054Z" fill="#C63031"/></svg>