<svg width="285" height="257" viewBox="0 0 285 257" fill="none" xmlns="http://www.w3.org/2000/svg">
<path d="M30.7317 0V174.435C26.8813 192.924 20.3604 200.137 1.05762 199.298V207.718H57.5971V200.499C55.9924 199.7 54.3893 198.896 52.7861 198.097V57.345L114.94 110.677V172.83H126.17V94.2377L30.7317 0.000363203V0Z" fill="#393185"/>
<path d="M68.2879 78.6382C68.2382 87.9391 68.1967 97.244 68.1524 106.594C64.3421 104.678 60.2651 102.612 55.9005 100.381C55.9761 89.9597 56.0516 79.5488 56.1272 69.1833C60.4504 72.5818 64.5015 75.7283 68.2879 78.6382Z" fill="#D2AE6D"/>
<path d="M83.5216 90.4367C83.5115 98.4035 83.4918 106.382 83.4817 114.391C81.0736 113.164 78.5399 111.881 75.8595 110.495C75.8907 101.832 75.9209 93.1908 75.9448 84.5742C78.6097 86.6459 81.1292 88.5967 83.5216 90.4367Z" fill="#D2AE6D"/>
<path d="M95.6815 99.877C95.6873 106.774 95.6931 113.697 95.6971 120.639C93.9032 119.718 92.0178 118.754 90.0573 117.744C90.0573 110.324 90.0613 102.914 90.0613 95.5193C92.0178 97.0415 93.893 98.4947 95.6815 99.877Z" fill="#D2AE6D"/>
<path d="M104.956 107.086C104.976 113.185 104.99 119.283 105.006 125.416C103.613 124.706 102.166 123.958 100.662 123.188C100.646 116.683 100.637 110.194 100.626 103.709C102.13 104.89 103.568 106.01 104.956 107.086Z" fill="#D2AE6D"/>
<path d="M112.276 112.788C112.296 118.251 112.322 123.726 112.342 129.195C111.226 128.638 110.08 128.05 108.893 127.421C108.868 121.636 108.853 115.869 108.833 110.103C110.019 111.043 111.166 111.927 112.276 112.788Z" fill="#D2AE6D"/>
<path d="M68.1146 113.894C68.0692 123.31 68.0234 132.776 67.9835 142.256C64.1332 141.628 60.0108 140.93 55.6117 140.17C55.6872 129.562 55.7686 119.026 55.8441 108.51C60.2117 110.451 64.2984 112.235 68.1146 113.894Z" fill="#D2AE6D"/>
<path d="M83.4714 120.623C83.4612 128.701 83.4412 136.781 83.4314 144.899C81.0031 144.482 78.4497 144.054 75.7551 143.572C75.7864 134.775 75.8161 126.022 75.8405 117.27C78.5209 118.467 81.0586 119.568 83.4714 120.623Z" fill="#D2AE6D"/>
<path d="M95.6991 126.031C95.7035 133.025 95.7093 140.018 95.7133 147.046C93.9038 146.728 92.0199 146.402 90.0433 146.045C90.0433 138.524 90.0491 131.025 90.0535 123.539C92.0199 124.408 93.8995 125.238 95.6991 126.031Z" fill="#D2AE6D"/>
<path d="M105.018 130.189C105.032 136.352 105.048 142.525 105.062 148.704C103.666 148.457 102.212 148.211 100.705 147.93C100.689 141.359 100.679 134.799 100.665 128.25C102.177 128.938 103.62 129.57 105.018 130.189Z" fill="#D2AE6D"/>
<path d="M112.361 133.465C112.381 138.975 112.405 144.494 112.425 150.009C111.309 149.822 110.158 149.627 108.962 149.406C108.942 143.569 108.926 137.742 108.906 131.937C110.098 132.464 111.244 132.972 112.361 133.465Z" fill="#D2AE6D"/>
<path d="M67.9373 150.654C67.8915 160.235 67.8461 169.833 67.8018 179.459C63.9159 180.192 59.7536 180.952 55.3091 181.741C55.3846 170.968 55.4656 160.246 55.5397 149.548C59.9545 149.956 64.0812 150.322 67.9373 150.654Z" fill="#D2AE6D"/>
<path d="M83.416 152.085C83.4 160.258 83.3858 168.478 83.376 176.697C80.932 177.139 78.3584 177.602 75.6438 178.064C75.6696 169.146 75.6994 160.238 75.7295 151.365C78.4339 151.617 80.9832 151.854 83.416 152.085Z" fill="#D2AE6D"/>
<path d="M95.7208 153.253C95.7252 160.332 95.735 167.405 95.7408 174.518C93.9211 174.834 92.0259 175.176 90.0294 175.508C90.0352 167.892 90.0396 160.291 90.045 152.7C92.0201 152.907 93.911 153.093 95.7208 153.253Z" fill="#D2AE6D"/>
<path d="M105.077 154.181C105.097 160.403 105.112 166.642 105.126 172.885C103.72 173.141 102.262 173.404 100.743 173.664C100.733 167.004 100.723 160.374 100.713 153.758C102.226 153.904 103.679 154.044 105.077 154.181Z" fill="#D2AE6D"/>
<path d="M112.447 154.887C112.467 160.451 112.493 166.002 112.513 171.571C111.391 171.782 110.236 171.988 109.044 172.199C109.024 166.312 108.999 160.441 108.983 154.565C110.174 154.68 111.326 154.781 112.447 154.887Z" fill="#D2AE6D"/>
<path d="M253.73 0V174.435C257.58 192.924 264.101 200.137 283.404 199.298V207.718H226.866V200.499C228.469 199.7 230.072 198.896 231.676 198.097V57.345L169.521 110.677V172.83H158.291V94.2377L253.73 0.000363203V0Z" fill="#393185"/>
<path d="M216.171 78.6382C216.221 87.9391 216.26 97.244 216.306 106.594C220.117 104.678 224.193 102.612 228.557 100.381C228.481 89.9597 228.401 79.5488 228.326 69.1833C224.007 72.5818 219.955 75.7283 216.171 78.6382Z" fill="#D2AE6D"/>
<path d="M200.936 90.4367C200.946 98.4035 200.968 106.382 200.978 114.391C203.384 113.164 205.918 111.881 208.598 110.495C208.568 101.832 208.537 93.1908 208.513 84.5742C205.848 86.6459 203.33 88.5967 200.936 90.4367Z" fill="#D2AE6D"/>
<path d="M188.779 99.877C188.775 106.774 188.769 113.697 188.763 120.639C190.559 119.718 192.444 118.754 194.405 117.744C194.405 110.324 194.395 102.914 194.399 95.5193C192.444 97.0415 190.569 98.4947 188.779 99.877Z" fill="#D2AE6D"/>
<path d="M179.505 107.086C179.485 113.185 179.469 119.283 179.453 125.416C180.847 124.706 182.295 123.958 183.797 123.188C183.812 116.683 183.822 110.194 183.832 103.709C182.329 104.89 180.891 106.01 179.505 107.086Z" fill="#D2AE6D"/>
<path d="M172.185 112.788C172.166 118.251 172.14 123.726 172.12 129.195C173.236 128.638 174.383 128.05 175.568 127.421C175.594 121.636 175.608 115.869 175.628 110.103C174.442 111.043 173.297 111.927 172.185 112.788Z" fill="#D2AE6D"/>
<path d="M216.345 113.887C216.389 123.303 216.435 132.769 216.474 142.25C220.326 141.621 224.447 140.923 228.846 140.163C228.771 129.556 228.691 119.019 228.616 108.503C224.252 110.444 220.159 112.228 216.345 113.887Z" fill="#D2AE6D"/>
<path d="M200.988 120.623C200.998 128.701 201.018 136.781 201.028 144.899C203.456 144.482 206.01 144.054 208.705 143.572C208.675 134.775 208.645 126.022 208.619 117.27C205.94 118.467 203.401 119.568 200.988 120.623Z" fill="#D2AE6D"/>
<path d="M188.761 126.031C188.756 133.025 188.752 140.018 188.746 147.046C190.556 146.728 192.441 146.402 194.416 146.045C194.416 138.524 194.412 131.025 194.406 123.539C192.441 124.408 190.561 125.238 188.761 126.031Z" fill="#D2AE6D"/>
<path d="M179.443 130.189C179.428 136.352 179.412 142.525 179.398 148.704C180.796 148.457 182.248 148.211 183.756 147.93C183.771 141.359 183.781 134.799 183.797 128.25C182.283 128.938 180.84 129.57 179.443 130.189Z" fill="#D2AE6D"/>
<path d="M172.102 133.465C172.08 138.975 172.056 144.494 172.036 150.009C173.152 149.822 174.303 149.627 175.499 149.406C175.519 143.569 175.534 137.742 175.554 131.937C174.363 132.464 173.217 132.972 172.102 133.465Z" fill="#D2AE6D"/>
<path d="M216.522 150.654C216.566 160.235 216.612 169.833 216.658 179.459C220.543 180.192 224.706 180.952 229.149 181.741C229.073 170.968 228.993 160.246 228.918 149.548C224.505 149.956 220.377 150.322 216.522 150.654Z" fill="#D2AE6D"/>
<path d="M201.044 152.084C201.064 160.257 201.074 168.477 201.084 176.696C203.528 177.138 206.101 177.601 208.816 178.063C208.79 169.145 208.76 160.237 208.731 151.364C206.032 151.616 203.478 151.853 201.044 152.084Z" fill="#D2AE6D"/>
<path d="M188.742 153.253C188.738 160.332 188.727 167.405 188.722 174.518C190.542 174.834 192.437 175.176 194.433 175.508C194.423 167.892 194.423 160.291 194.417 152.7C192.442 152.907 190.551 153.093 188.742 153.253Z" fill="#D2AE6D"/>
<path d="M179.382 154.181C179.362 160.403 179.347 166.642 179.332 172.885C180.74 173.141 182.192 173.404 183.715 173.664C183.725 167.004 183.735 160.374 183.745 153.758C182.233 153.904 180.779 154.044 179.382 154.181Z" fill="#D2AE6D"/>
<path d="M172.015 154.887C171.989 160.451 171.969 166.002 171.949 171.571C173.069 171.782 174.227 171.988 175.418 172.199C175.438 166.312 175.463 160.441 175.478 154.565C174.286 154.68 173.135 154.781 172.015 154.887Z" fill="#D2AE6D"/>
<path d="M13.7218 245.794L6.27213 231.829V244.235C6.27213 244.547 6.34332 244.778 6.4788 244.933C6.62408 245.09 6.87069 245.216 7.22264 245.321V245.794H1.28027V245.321C1.63803 245.216 1.88319 245.09 2.02411 244.933C2.15959 244.778 2.23078 244.547 2.23078 244.235V227.124C2.23078 226.826 2.15959 226.601 2.02411 226.444C1.88319 226.283 1.63803 226.158 1.28027 226.058V225.585H9.07207V226.058C8.61043 226.173 8.37399 226.45 8.37399 226.872C8.37399 227.068 8.44954 227.293 8.58465 227.556L14.0894 237.997L19.67 227.731C19.9206 227.273 20.0419 226.947 20.0419 226.741C20.0419 226.335 19.7953 226.108 19.302 226.058V225.585H26.9431V226.058C26.5908 226.158 26.3402 226.283 26.1989 226.444C26.0638 226.601 25.9941 226.826 25.9941 227.124V244.235C25.9941 244.547 26.0638 244.778 26.1989 244.933C26.3402 245.09 26.5908 245.216 26.9431 245.321V245.794H20.6288V245.321C20.9808 245.226 21.223 245.105 21.3639 244.939C21.5096 244.778 21.5793 244.547 21.5793 244.235V231.829L13.7218 245.794ZM47.6152 230.722V239.5C47.6152 241.505 47.2178 242.974 46.434 243.913C45.157 245.406 42.7588 246.146 39.2292 246.146C36.8723 246.146 34.967 245.788 33.5134 245.065C32.4678 244.547 31.7537 243.798 31.3676 242.833C31.0099 241.943 30.8345 240.832 30.8345 239.5V230.722C30.8345 230.416 30.7633 230.185 30.6278 230.024C30.4869 229.869 30.2417 229.732 29.884 229.626V229.214H35.7606V229.626C35.3988 229.727 35.1479 229.853 35.0069 230.02C34.8715 230.185 34.8003 230.416 34.8003 230.722V238.706C34.8003 239.631 34.8816 240.339 35.0469 240.832C35.2136 241.324 35.4944 241.732 35.8961 242.048C36.7056 242.692 37.877 243.008 39.406 243.008C40.9391 243.008 42.1105 242.692 42.92 242.048C43.3119 241.732 43.5883 241.324 43.7492 240.832C43.9047 240.339 43.9857 239.631 43.9857 238.706V230.722C43.9857 230.416 43.9203 230.185 43.7834 230.024C43.6537 229.869 43.3973 229.732 43.0352 229.626V229.214H48.5642V229.626C48.2079 229.727 47.9617 229.853 47.8204 230.02C47.6849 230.185 47.6152 230.416 47.6152 230.722ZM56.0698 238.987V244.271C56.0698 244.577 56.141 244.814 56.2765 244.975C56.4174 245.136 56.664 245.271 57.0203 245.381V245.794H51.1491V245.381C51.5011 245.291 51.7419 245.16 51.8832 244.995C52.0284 244.828 52.104 244.593 52.104 244.281V230.722C52.104 230.416 52.0284 230.185 51.893 230.024C51.752 229.869 51.5112 229.732 51.1491 229.626V229.214H62.0176C63.4297 229.214 64.5055 229.284 65.245 229.425C65.9834 229.572 66.6474 229.827 67.2303 230.205C68.427 230.984 69.0198 232.261 69.0198 234.025C69.0198 235.367 68.6522 236.418 67.9186 237.173C67.1802 237.931 65.9932 238.474 64.3545 238.812L67.4965 243.179C68.0653 243.984 68.5269 244.537 68.8647 244.824C69.2054 245.114 69.5929 245.301 70.0244 245.381V245.794H63.0578V245.381C63.575 245.241 63.8314 245.019 63.8314 244.718C63.8314 244.502 63.6705 244.165 63.3542 243.728L60.0411 238.987H56.0698ZM56.0698 235.98H62.0474C62.9565 235.98 63.6306 235.88 64.0581 235.679C64.6708 235.417 64.9788 234.89 64.9788 234.101C64.9788 233.397 64.7663 232.909 64.3345 232.633C63.907 232.357 63.1432 232.221 62.0474 232.221H56.0698V235.98ZM85.2975 241.652H77.6669L76.812 243.456C76.6009 243.889 76.4996 244.231 76.4996 244.476C76.4996 244.949 76.8159 245.251 77.4501 245.381V245.794H71.3468V245.381C71.7188 245.321 71.9955 245.206 72.1862 245.04C72.3674 244.869 72.5795 244.542 72.8247 244.044L78.8822 231.788C79.1088 231.326 79.2243 230.919 79.2243 230.572C79.2243 230.169 78.9479 229.853 78.3948 229.626V229.214H84.8344V229.626C84.2914 229.843 84.0208 230.179 84.0208 230.632C84.0208 230.959 84.1407 231.36 84.3927 231.829L90.6656 243.722C91.0175 244.371 91.2841 244.784 91.4806 244.975C91.6771 245.166 91.9837 245.305 92.3854 245.381V245.794H85.6196V245.381C86.2625 245.271 86.5788 244.969 86.5788 244.482C86.5788 244.175 86.459 243.798 86.2069 243.34L85.2975 241.652ZM84.1007 239.323L81.3861 233.995L78.8027 239.323H84.1007ZM94.7081 244.281V230.722C94.7081 230.416 94.6369 230.185 94.5017 230.024C94.3605 229.869 94.1197 229.732 93.7579 229.626V229.214H103.49C105.511 229.214 107.11 229.465 108.271 229.964C109.914 230.678 111.091 231.849 111.815 233.492C112.312 234.634 112.563 235.976 112.563 237.499C112.563 240.335 111.72 242.485 110.036 243.943C109.276 244.597 108.377 245.065 107.346 245.361C106.315 245.647 105.028 245.794 103.49 245.794H93.7579V245.381C94.1098 245.291 94.3507 245.16 94.4916 244.995C94.6369 244.828 94.7081 244.593 94.7081 244.281ZM98.6797 242.787H102.912C104.857 242.787 106.271 242.34 107.15 241.451C108.064 240.526 108.522 239.208 108.522 237.499C108.522 235.795 108.064 234.478 107.15 233.554C106.692 233.09 106.129 232.748 105.461 232.537C104.787 232.327 103.938 232.221 102.912 232.221H98.6797V242.787Z" fill="#393185"/>
<path d="M141.056 235.213C143.323 236.074 144.465 237.667 144.465 239.984C144.465 241.83 143.801 243.277 142.474 244.323C141.81 244.846 141.03 245.223 140.146 245.455C139.261 245.686 138.171 245.801 136.868 245.801H123.049V245.328C123.406 245.228 123.653 245.097 123.792 244.942C123.929 244.785 123.999 244.554 123.999 244.248V227.151C123.999 226.839 123.929 226.608 123.792 226.453C123.653 226.296 123.406 226.165 123.049 226.065V225.592H136.727C138.045 225.592 139.101 225.693 139.899 225.888C140.704 226.085 141.398 226.421 142.001 226.894C143.198 227.829 143.795 229.187 143.795 230.956C143.795 232.926 142.88 234.35 141.056 235.213ZM128.412 233.63H136.154C137.331 233.63 138.151 233.459 138.612 233.113C139.135 232.715 139.397 232.107 139.397 231.277C139.397 230.428 139.151 229.82 138.658 229.464C138.165 229.106 137.331 228.921 136.154 228.921H128.412V233.63ZM128.412 242.473H135.898C137.296 242.473 138.296 242.277 138.909 241.895C139.608 241.452 139.96 240.724 139.96 239.718C139.96 238.723 139.608 237.993 138.909 237.536C138.306 237.154 137.306 236.963 135.898 236.963H128.412V242.473ZM164.527 230.73V239.513C164.527 241.513 164.13 242.981 163.34 243.922C162.069 245.413 159.671 246.157 156.143 246.157C153.784 246.157 151.879 245.795 150.427 245.071C149.381 244.554 148.667 243.805 148.28 242.84C147.923 241.951 147.746 240.839 147.746 239.513V230.73C147.746 230.422 147.677 230.192 147.541 230.036C147.4 229.875 147.154 229.74 146.797 229.635V229.221H152.674V229.635C152.312 229.734 152.06 229.86 151.919 230.03C151.783 230.192 151.714 230.422 151.714 230.73V238.713C151.714 239.638 151.794 240.346 151.954 240.839C152.126 241.332 152.408 241.74 152.809 242.056C153.619 242.699 154.79 243.016 156.318 243.016C157.851 243.016 159.022 242.699 159.832 242.056C160.224 241.74 160.5 241.332 160.661 240.839C160.818 240.346 160.898 239.638 160.898 238.713V230.73C160.898 230.422 160.832 230.192 160.697 230.036C160.566 229.875 160.309 229.74 159.947 229.635V229.221H165.478V229.635C165.12 229.734 164.874 229.86 164.734 230.03C164.597 230.192 164.527 230.422 164.527 230.73ZM172.983 230.73V244.278C172.983 244.584 173.053 244.816 173.188 244.982C173.329 245.143 173.576 245.284 173.932 245.389V245.801H168.061V245.389C168.413 245.298 168.654 245.172 168.795 245.002C168.94 244.836 169.012 244.6 169.012 244.293V230.73C169.012 230.422 168.94 230.192 168.805 230.036C168.664 229.875 168.423 229.74 168.061 229.635V229.221H173.932V229.635C173.576 229.734 173.329 229.86 173.188 230.03C173.053 230.192 172.983 230.422 172.983 230.73ZM181.76 242.794H191.041C191.357 242.794 191.593 242.724 191.749 242.589C191.91 242.452 192.045 242.197 192.15 241.835H192.548V246.752H192.15C192.051 246.394 191.924 246.153 191.753 246.008C191.593 245.871 191.357 245.801 191.041 245.801H176.843V245.389C177.189 245.298 177.432 245.172 177.577 245.002C177.723 244.836 177.794 244.6 177.794 244.293V230.73C177.794 230.422 177.723 230.192 177.583 230.036C177.442 229.875 177.201 229.74 176.843 229.635V229.221H182.71V229.635C182.358 229.734 182.107 229.86 181.966 230.03C181.831 230.192 181.76 230.422 181.76 230.73V242.794ZM195.203 244.293V230.73C195.203 230.422 195.132 230.192 194.996 230.036C194.855 229.875 194.609 229.74 194.252 229.635V229.221H203.979C206.006 229.221 207.599 229.473 208.76 229.971C210.405 230.685 211.58 231.856 212.304 233.499C212.807 234.641 213.058 235.983 213.058 237.506C213.058 240.342 212.215 242.493 210.524 243.951C209.765 244.604 208.871 245.071 207.835 245.369C206.805 245.655 205.523 245.801 203.979 245.801H194.252V245.389C194.599 245.298 194.845 245.172 194.986 245.002C195.132 244.836 195.203 244.6 195.203 244.293ZM199.169 242.794H203.407C205.351 242.794 206.76 242.353 207.639 241.462C208.553 240.537 209.017 239.216 209.017 237.506C209.017 235.808 208.553 234.485 207.639 233.56C207.187 233.097 206.618 232.755 205.95 232.544C205.282 232.334 204.433 232.228 203.407 232.228H199.169V242.794ZM220.508 230.73V244.278C220.508 244.584 220.579 244.816 220.715 244.982C220.856 245.143 221.102 245.284 221.458 245.389V245.801H215.592V245.389C215.939 245.298 216.18 245.172 216.321 245.002C216.467 244.836 216.542 244.6 216.542 244.293V230.73C216.542 230.422 216.467 230.192 216.331 230.036C216.19 229.875 215.949 229.74 215.592 229.635V229.221H221.458V229.635C221.102 229.734 220.856 229.86 220.715 230.03C220.579 230.192 220.508 230.422 220.508 230.73ZM228.934 234.877V244.283C228.934 244.584 229.004 244.82 229.15 244.986C229.29 245.157 229.532 245.288 229.884 245.389V245.801H224.369V245.389C224.716 245.298 224.957 245.172 225.104 245.002C225.249 244.836 225.319 244.6 225.319 244.293V230.73C225.319 230.422 225.249 230.192 225.113 230.036C224.967 229.875 224.726 229.74 224.369 229.635V229.221H230.738V229.635C230.3 229.74 230.085 229.935 230.085 230.212C230.085 230.448 230.246 230.725 230.557 231.041L239.44 239.865V230.73C239.44 230.422 239.37 230.192 239.234 230.03C239.088 229.86 238.847 229.734 238.49 229.635V229.221H244.005V229.635C243.648 229.734 243.402 229.86 243.261 230.03C243.125 230.192 243.054 230.422 243.054 230.73V244.278C243.054 244.584 243.125 244.816 243.261 244.982C243.402 245.143 243.648 245.284 244.005 245.389V245.801H238.062V245.389C238.5 245.304 238.716 245.117 238.716 244.84C238.716 244.705 238.656 244.564 238.539 244.419C238.42 244.273 238.144 243.981 237.72 243.554L228.934 234.877ZM261.871 239.401H258.096C257.778 239.401 257.542 239.477 257.382 239.612C257.215 239.753 257.084 239.994 256.985 240.352H256.587V235.968H256.985C257.084 236.315 257.215 236.551 257.382 236.697C257.542 236.832 257.778 236.903 258.096 236.903H265.993V237.331C265.641 237.431 265.399 237.577 265.26 237.763C265.113 237.949 265.043 238.216 265.043 238.562V242.056C265.043 242.367 265.113 242.603 265.26 242.77C265.399 242.935 265.641 243.067 265.993 243.166V243.508C262.79 245.274 259.604 246.157 256.426 246.157C253.681 246.157 251.46 245.509 249.766 244.212C248.845 243.508 248.107 242.629 247.539 241.583C246.88 240.336 246.548 239.01 246.548 237.601C246.548 235.641 247.152 233.912 248.354 232.389C250.229 230.041 253.003 228.865 256.678 228.865C258.287 228.865 260.121 229.221 262.187 229.931C263.007 230.207 263.48 230.348 263.621 230.348C263.786 230.348 263.987 230.267 264.214 230.112L264.566 230.303L262.599 234.475L262.243 234.298V234.209C262.243 233.847 261.875 233.469 261.147 233.087C259.795 232.363 258.347 232.007 256.794 232.007C255.008 232.007 253.546 232.494 252.395 233.469C251.193 234.495 250.591 235.877 250.591 237.617C250.591 239.24 251.138 240.547 252.234 241.523C253.36 242.518 254.938 243.016 256.969 243.016C258.905 243.016 260.539 242.659 261.871 241.935V239.401ZM284.694 230.715L282.687 234.581L282.335 234.39C282.335 234.068 282.23 233.811 282.025 233.62C281.462 233.117 280.632 232.701 279.536 232.379C278.439 232.051 277.329 231.892 276.208 231.892C275.243 231.892 274.398 232.021 273.66 232.288C272.594 232.67 272.055 233.229 272.055 233.962C272.055 234.445 272.312 234.787 272.825 234.988C273.338 235.189 274.332 235.35 275.8 235.47L278.143 235.647C280.189 235.808 281.738 236.2 282.808 236.832C283.401 237.184 283.89 237.661 284.272 238.25C284.759 238.994 285 239.823 285 240.754C285 242.442 284.242 243.77 282.718 244.751C281.271 245.686 279.304 246.157 276.826 246.157C274.323 246.157 271.914 245.624 269.587 244.57C269.426 244.504 269.291 244.469 269.185 244.469C268.989 244.469 268.803 244.584 268.637 244.82L268.265 244.675L269.969 240.618L270.337 240.764V240.885C270.337 241.141 270.437 241.362 270.638 241.537C271.126 241.971 271.98 242.347 273.197 242.669C274.414 242.985 275.609 243.146 276.796 243.146C277.842 243.146 278.777 243.011 279.606 242.734C280.632 242.402 281.15 241.855 281.15 241.106C281.15 240.507 280.792 240.085 280.084 239.854C279.606 239.694 278.752 239.562 277.52 239.451L275.193 239.256C273.941 239.161 272.986 239.035 272.322 238.874C271.664 238.717 271.085 238.482 270.593 238.18C269.959 237.788 269.466 237.246 269.11 236.561C268.758 235.888 268.577 235.139 268.577 234.33C268.577 232.514 269.357 231.127 270.92 230.172C272.337 229.303 274.096 228.865 276.193 228.865C277.329 228.865 278.385 228.99 279.37 229.247C280.35 229.498 281.522 229.935 282.889 230.569C283.292 230.754 283.568 230.85 283.729 230.85C283.89 230.85 284.091 230.74 284.337 230.524L284.694 230.715Z" fill="#393185"/>
<path d="M0 219.199H284.461V215.6H0V219.199Z" fill="#393185"/>
<path d="M0 256.731H284.461V253.132H0V256.731Z" fill="#393185"/>
</svg>
