<svg xmlns="http://www.w3.org/2000/svg" viewBox="0 0 297.9 44.17"><defs><linearGradient id="linear-gradient" x1="-215.04" y1="-2089.38" x2="-179.75" y2="-2089.38" gradientTransform="rotate(-90 967.25 -1139.77)" gradientUnits="userSpaceOnUse"><stop offset="0" stop-color="#750006"/><stop offset="1" stop-color="#e10032"/></linearGradient><linearGradient id="linear-gradient-2" x1="-185.15" y1="-2136.83" x2="-149.86" y2="-2136.83" gradientTransform="rotate(-90 1005.92 -1155.78)" gradientUnits="userSpaceOnUse"><stop offset="0" stop-color="#ccc"/><stop offset=".09" stop-color="#a6a6a6"/><stop offset=".4" stop-color="#262626"/><stop offset=".5" stop-color="#e6e6e6"/><stop offset="1" stop-color="#bfbfbf"/></linearGradient><linearGradient id="linear-gradient-3" x1="-183.54" y1="-2136.83" x2="-151.47" y2="-2136.83" gradientTransform="rotate(-90 1005.92 -1155.78)" gradientUnits="userSpaceOnUse"><stop offset="0" stop-color="#404040"/><stop offset=".27" stop-color="#999"/><stop offset=".5" stop-color="#e6e6e6"/><stop offset=".86" stop-color="#999"/><stop offset="1" stop-color="#262626"/></linearGradient><style>.cls-7{fill:#231916}</style></defs><g style="isolation:isolate"><g id="Layer_2" data-name="Layer 2"><g id="Layer_1-2" data-name="Layer 1"><path d="M17.64 7.23A17.65 17.65 0 1 1 0 24.88 17.63 17.63 0 0 1 17.64 7.23Z" style="fill:url(#linear-gradient)"/><path d="M31.15 36.22a17.27 17.27 0 0 0 3-5.22A14.49 14.49 0 1 1 17.69 7.23h-.05a17.63 17.63 0 0 0-5.88 1 17.64 17.64 0 0 0 13.51 29 17.38 17.38 0 0 0 5.88-1.01Z" style="fill:#b3b3b3;mix-blend-mode:multiply"/><path d="M7.23 17.64A17.65 17.65 0 1 0 24.88 0 17.65 17.65 0 0 0 7.23 17.64Zm33.21 0A15.56 15.56 0 1 1 24.88 2.08a15.56 15.56 0 0 1 15.56 15.56Z" style="fill:url(#linear-gradient-2)"/><path d="M8.84 17.64a16 16 0 1 0 16-16 16 16 0 0 0-16 16Zm30.53 0A14.49 14.49 0 1 1 24.88 3.15a14.49 14.49 0 0 1 14.49 14.49Z" style="fill:url(#linear-gradient-3)"/><path style="fill:none;stroke:#ce002d;stroke-miterlimit:10;stroke-width:.9px" d="M53.18 26.54H297.9"/><path class="cls-7" d="M234.33 4.53h-12.04v1.56h4.87V18.7h2.3V6.09h4.87V4.53zM241.49 11.63c0-4 2.43-7.32 7.2-7.32s7.19 3.19 7.19 7.32-2.46 7.37-7.19 7.37-7.2-3.41-7.2-7.37Zm7.2 5.79c3.39 0 4.74-3.15 4.74-5.79s-1.32-5.79-4.74-5.79S244 9.05 244 11.63s1.29 5.79 4.69 5.79ZM236.38 18.7V4.53h2.29V18.7ZM185.59 12.3c1.67 0 2.28.42 2.77 1.58l2 4.82H193s-1.7-3.92-2.26-5.07a3 3 0 0 0-2-1.86c1.94-.57 3.29-1.93 3.29-3.64 0-2.85-2.52-3.6-5.63-3.6h-4.65V18.7H184v-6.4ZM184 10.84V6h2.17c2.06 0 3.44.62 3.44 2.33s-1.36 2.54-3.44 2.54ZM141.25 18.7V4.53h3.47l6.57 12.07V4.53h1.88V18.7H150l-6.89-12.39V18.7ZM135.39 18.7V4.53h2.29V18.7ZM195 18.7V4.53h3.46L205 16.6V4.53h1.87V18.7h-3.16l-6.9-12.39V18.7ZM179.02 6.1V4.53h-9.8V18.7h9.8v-1.56h-7.52v-4.89h7.23v-1.57h-7.23V6.1h7.52zM288.95 18.7h8.95v-1.71h-6.59V4.53h-2.36V18.7M221.16 18.7h2.42l-5.85-14.17h-3.35l-5.85 14.17H211l1.53-3.81h7.15Zm-8.08-5.32 3-7.43 3 7.43ZM258.71 18.7V4.53h3.46l6.58 12.07V4.53h1.87V18.7h-3.16l-6.9-12.39V18.7ZM284.89 18.7h2.42l-5.85-14.17h-3.36l-5.84 14.17h2.42l1.53-3.81h7.15Zm-8.08-5.32 3-7.43 3 7.43ZM167.16 4.53h-12.03V6.1H160v12.6h2.29V6.1h4.87V4.53zM94.85 4.53l-4.66 11.92-4.66-11.92h-3.31v14.18h2.09V6.32l4.86 12.39h2.05l4.85-12.39v12.39h2.1V4.53h-3.32zM53.28 16.52a10.77 10.77 0 0 0 4.4 1c1.76 0 3.55-.69 3.55-2.39 0-1.42-1.42-2.2-3.21-2.87l-1.28-.5c-1.72-.67-3.4-1.69-3.4-3.6 0-2.71 3-3.82 5.79-3.82a14.14 14.14 0 0 1 4 .54L63 6.42a11.44 11.44 0 0 0-3.78-.68c-1.76 0-3.38.7-3.38 2.17 0 1.17 1.17 1.8 2.78 2.42l1.25.49c2.09.79 3.91 1.87 3.91 4 0 2.74-2.64 4.12-5.92 4.12a16.84 16.84 0 0 1-4.67-.76ZM101.27 18.71V4.54h4.41c3.11 0 5.94.91 5.94 4.07s-2.81 4.44-6.1 4.44h-1.94v5.66Zm2.31-7.12h2.25c2.08 0 3.36-1.09 3.36-3S107.77 6 105.83 6h-2.25ZM113.13 11.63c0-4 2.42-7.31 7.2-7.31s7.19 3.19 7.19 7.31-2.47 7.37-7.19 7.37-7.2-3.4-7.2-7.37Zm7.2 5.79c3.39 0 4.74-3.15 4.74-5.79s-1.33-5.78-4.74-5.78-4.74 3.2-4.74 5.78 1.34 5.79 4.74 5.79ZM65.38 11.63c0-4 2.43-7.31 7.2-7.31s7.2 3.19 7.2 7.31S77.31 19 72.58 19s-7.2-3.4-7.2-7.37Zm7.2 5.79c3.39 0 4.74-3.15 4.74-5.79S76 5.85 72.58 5.85s-4.74 3.2-4.74 5.78 1.35 5.79 4.74 5.79ZM53.18 34.12h2.53a2.06 2.06 0 0 1 2.21 2.33 2.17 2.17 0 0 1-2.34 2.36h-1.12v3.3h-1.28Zm1.28 3.73h.9a1.21 1.21 0 0 0 1.28-1.38c0-.86-.35-1.39-1.37-1.39h-.81ZM58.75 36.09H60V37a1.48 1.48 0 0 1 1.4-1.1.76.76 0 0 1 .29 0v1.23a2.49 2.49 0 0 0-.51-.07c-.55 0-1.21.25-1.21 1.37v3.6h-1.22ZM64.34 35.93c1.76 0 2.25 1.3 2.25 3.17s-.57 3.17-2.25 3.17S62.1 41 62.1 39.1s.49-3.17 2.24-3.17Zm0 5.44c.88 0 1-.74 1-2.27 0-1.33-.16-2.27-1-2.27s-1 .94-1 2.27c-.03 1.53.13 2.27 1 2.27ZM67.63 36.09h1.14v.7a1.69 1.69 0 0 1 1.44-.86 1.31 1.31 0 0 1 1.4.92 1.65 1.65 0 0 1 1.52-.92c.85 0 1.47.44 1.47 1.6v4.58h-1.17V38c0-.78-.24-1.09-.73-1.09s-1 .4-1 1.18v4h-1.17V38c0-.78-.24-1.09-.74-1.09s-1 .4-1 1.18v4h-1.16ZM76 34h1.21v1.21H76Zm0 2.06h1.21v6H76ZM81.05 37.85v-.16c0-.48-.17-.93-.79-.93s-.87.22-.87.78.22.66.86.89l.77.27a1.63 1.63 0 0 1 1.31 1.73c0 1.29-.94 1.84-2.16 1.84-1.53 0-2-.71-2-1.87v-.23h1.07v.19c0 .7.25 1.08.94 1.08s1-.34 1-.89a.88.88 0 0 0-.67-.88l-1-.35a1.6 1.6 0 0 1-1.29-1.73c0-1.13.82-1.66 2.06-1.66 1.54 0 1.88.9 1.88 1.65v.27ZM84.32 39.26v.34c0 .81.1 1.84 1 1.84s1-1 1-1.34h1.14a2 2 0 0 1-2.11 2.17c-1 0-2.21-.29-2.21-3.08 0-1.58.34-3.26 2.23-3.26 1.68 0 2.12 1 2.12 2.69v.64Zm1.94-.83v-.33c0-.76-.25-1.34-.93-1.34s-1 .76-1 1.55v.12ZM88.23 40.63h1.27v1.48h-1.27ZM93.44 35.19h-1.9v-1.07h5v1.07h-1.82v6.92h-1.28ZM96.47 36.09h1.21V37a1.49 1.49 0 0 1 1.4-1.1.76.76 0 0 1 .29 0v1.23a2.37 2.37 0 0 0-.5-.07c-.55 0-1.21.25-1.21 1.37v3.6h-1.19ZM103.13 41.41a1.73 1.73 0 0 1-1.54.86c-.9 0-1.5-.42-1.5-2v-4.18h1.21v4.32c0 .67.3.89.81.89a.94.94 0 0 0 1-1v-4.21h1.21v6h-1.14ZM108.09 37.85v-.16c0-.48-.17-.93-.8-.93s-.86.22-.86.78.21.66.85.89l.77.27a1.62 1.62 0 0 1 1.31 1.73c0 1.29-.94 1.84-2.16 1.84-1.52 0-2-.71-2-1.87v-.23h1.07v.19c0 .7.25 1.08.94 1.08s1-.34 1-.89a.89.89 0 0 0-.66-.88l-1-.35a1.6 1.6 0 0 1-1.28-1.73c0-1.13.81-1.66 2.06-1.66 1.53 0 1.88.9 1.88 1.65v.27ZM109.78 36.09h.82v-1.71h1.21v1.71h1V37h-1v3.6c0 .47.14.64.55.64a2.45 2.45 0 0 0 .44 0v.9a4.48 4.48 0 0 1-1 .1c-.81 0-1.22-.23-1.22-1.46V37h-.82ZM113.6 40.63h1.28v1.48h-1.28ZM118.2 34.12h2.53a2.05 2.05 0 0 1 2.21 2.33 2.17 2.17 0 0 1-2.34 2.36h-1.12v3.3h-1.28Zm1.28 3.73h.91a1.2 1.2 0 0 0 1.27-1.38c0-.86-.34-1.39-1.36-1.39h-.82ZM123.78 36.09H125V37a1.5 1.5 0 0 1 1.4-1.1.76.76 0 0 1 .29 0v1.23a2.37 2.37 0 0 0-.5-.07c-.55 0-1.21.25-1.21 1.37v3.6h-1.21ZM129.36 35.93c1.76 0 2.25 1.3 2.25 3.17s-.57 3.17-2.25 3.17-2.24-1.3-2.24-3.17.5-3.17 2.24-3.17Zm0 5.44c.89 0 1-.74 1-2.27 0-1.33-.15-2.27-1-2.27s-1 .94-1 2.27c-.03 1.53.13 2.27 1 2.27ZM132.06 36.09h.83v-1.71h1.21v1.71h1V37h-1v3.6c0 .47.13.64.55.64a2.33 2.33 0 0 0 .43 0v.9a4.32 4.32 0 0 1-1 .1c-.82 0-1.22-.23-1.22-1.46V37h-.83ZM136.81 39.26v.34c0 .81.1 1.84 1 1.84s1-1 1-1.34h1.14a2 2 0 0 1-2.12 2.17c-1 0-2.2-.29-2.2-3.08 0-1.58.33-3.26 2.23-3.26 1.67 0 2.12 1 2.12 2.69v.64Zm1.93-.83v-.33c0-.76-.24-1.34-.93-1.34s-1 .76-1 1.55v.12ZM145.07 39.92c-.08 1.44-.57 2.35-2.06 2.35-1.75 0-2.24-1.3-2.24-3.17s.49-3.17 2.24-3.17a1.94 1.94 0 0 1 2.07 2.16h-1.21c0-.56-.16-1.28-.86-1.26-.87 0-1 .94-1 2.27s.16 2.27 1 2.27c.67 0 .92-.55.92-1.45ZM145.49 36.09h.83v-1.71h1.21v1.71h1V37h-1v3.6c0 .47.13.64.55.64a2.55 2.55 0 0 0 .44 0v.9a4.48 4.48 0 0 1-1 .1c-.82 0-1.22-.23-1.22-1.46V37h-.83ZM149.32 40.63h1.28v1.48h-1.28ZM155.86 34.12h1.63l2.11 8h-1.33l-.5-2h-2.34l-.51 2h-1.33Zm1.7 5-.92-3.94-1 3.94ZM159.6 36.09h.83v-1.71h1.2v1.71h1V37h-1v3.6c0 .47.14.64.55.64a2.45 2.45 0 0 0 .44 0v.9a4.38 4.38 0 0 1-1 .1c-.82 0-1.22-.23-1.22-1.46V37h-.83ZM165.51 36.09h.83v-1.71h1.21v1.71h1V37h-1v3.6c0 .47.13.64.54.64a2.45 2.45 0 0 0 .44 0v.9a4.38 4.38 0 0 1-1 .1c-.82 0-1.22-.23-1.22-1.46V37h-.83ZM169.21 34.12h1.21v2.62a1.72 1.72 0 0 1 1.47-.83c.92 0 1.5.42 1.5 1.64v4.54h-1.21V38c0-.78-.23-1.09-.83-1.09s-1 .4-1 1.18v4h-1.21ZM175.69 39.26v.34c0 .81.11 1.84 1 1.84s1-1 1-1.34h1.15a2 2 0 0 1-2.12 2.17c-1 0-2.2-.29-2.2-3.08 0-1.58.33-3.26 2.22-3.26 1.68 0 2.13 1 2.13 2.69v.64Zm1.94-.83v-.33c0-.76-.25-1.34-.93-1.34s-1 .76-1 1.55v.12ZM186.14 39.92c-.08 1.44-.57 2.35-2.06 2.35-1.75 0-2.24-1.3-2.24-3.17s.49-3.17 2.24-3.17a1.94 1.94 0 0 1 2.07 2.16h-1.21c0-.56-.16-1.28-.86-1.26-.87 0-1 .94-1 2.27s.16 2.27 1 2.27c.67 0 .92-.55.92-1.45ZM188.14 39.26v.34c0 .81.1 1.84 1 1.84s1-1 1-1.34h1.14a2 2 0 0 1-2.11 2.17c-1 0-2.21-.29-2.21-3.08 0-1.58.34-3.26 2.23-3.26 1.68 0 2.13 1 2.13 2.69v.64Zm1.94-.83v-.33c0-.76-.25-1.34-.93-1.34s-1 .76-1 1.55v.12ZM192.34 36.09h1.14v.7a1.76 1.76 0 0 1 1.55-.86c.92 0 1.5.42 1.5 1.64v4.54h-1.21V38c0-.78-.24-1.09-.84-1.09s-1 .4-1 1.18v4h-1.21ZM197.24 36.09h.83v-1.71h1.21v1.71h1V37h-1v3.6c0 .47.13.64.55.64a2.33 2.33 0 0 0 .43 0v.9a4.32 4.32 0 0 1-1 .1c-.82 0-1.22-.23-1.22-1.46V37h-.83ZM202 39.26v.34c0 .81.1 1.84 1 1.84s1-1 1-1.34h1.14a2 2 0 0 1-2.14 2.17c-1 0-2.2-.29-2.2-3.08 0-1.58.33-3.26 2.23-3.26 1.67 0 2.12 1 2.12 2.69v.64Zm1.93-.83v-.33c0-.76-.24-1.34-.93-1.34s-1 .76-1 1.55v.12ZM206.18 36.09h1.21V37a1.48 1.48 0 0 1 1.4-1.1.76.76 0 0 1 .29 0v1.23a2.49 2.49 0 0 0-.51-.07c-.55 0-1.21.25-1.21 1.37v3.6h-1.21ZM214 35.93c1.76 0 2.25 1.3 2.25 3.17s-.57 3.17-2.25 3.17-2.24-1.3-2.24-3.17.45-3.17 2.24-3.17Zm0 5.44c.89 0 1-.74 1-2.27 0-1.33-.15-2.27-1-2.27s-1 .94-1 2.27c-.08 1.53.08 2.27 1 2.27ZM217.56 37h-.84v-.89h.84v-.56c0-1.14.55-1.5 1.53-1.5a6.12 6.12 0 0 1 .66 0V35h-.33c-.45 0-.65.17-.65.57v.53h1v.9h-1v5.13h-1.21ZM223.58 39.26v.34c0 .81.1 1.84 1 1.84s1-1 1-1.34h1.14a2 2 0 0 1-2.11 2.17c-1 0-2.21-.29-2.21-3.08 0-1.58.34-3.26 2.23-3.26 1.68 0 2.12 1 2.12 2.69v.64Zm1.94-.83v-.33c0-.76-.25-1.34-.93-1.34s-1 .76-1 1.55v.12ZM227.27 36.09h1.3l1.05 4.74.95-4.74h1.28l-1.58 6h-1.41ZM233.64 39.26v.34c0 .81.1 1.84 1 1.84s1-1 1-1.34h1.14a2 2 0 0 1-2.11 2.17c-1 0-2.21-.29-2.21-3.08 0-1.58.34-3.26 2.23-3.26 1.68 0 2.13 1 2.13 2.69v.64Zm1.94-.83v-.33c0-.76-.25-1.34-.93-1.34s-1 .76-1 1.55v.12ZM237.84 36.09h1.21V37a1.5 1.5 0 0 1 1.4-1.1.76.76 0 0 1 .29 0v1.23a2.37 2.37 0 0 0-.5-.07c-.55 0-1.21.25-1.21 1.37v3.6h-1.21ZM242.43 36.09l1 4.52 1-4.52h1.27l-1.66 6.24c-.47 1.65-.86 1.86-2.1 1.84a3.73 3.73 0 0 1-.48 0v-1a1.67 1.67 0 0 0 .39.05c.41 0 .68-.09.81-.47l.16-.49-1.71-6.16ZM245.91 36.09h.83v-1.71h1.2v1.71h1V37h-1v3.6c0 .47.14.64.55.64a2.45 2.45 0 0 0 .44 0v.9a4.38 4.38 0 0 1-1 .1c-.82 0-1.22-.23-1.22-1.46V37h-.83ZM249.61 34.12h1.21v2.62a1.75 1.75 0 0 1 1.48-.83c.92 0 1.5.42 1.5 1.64v4.54h-1.21V38c0-.78-.23-1.09-.84-1.09s-1 .4-1 1.18v4h-1.21ZM255.11 34h1.21v1.21h-1.21Zm0 2.06h1.21v6h-1.21ZM257.59 36.09h1.14v.7a1.73 1.73 0 0 1 1.54-.86c.92 0 1.5.42 1.5 1.64v4.54h-1.17V38c0-.78-.23-1.09-.83-1.09s-1 .4-1 1.18v4h-1.21ZM264.24 42.63a.79.79 0 0 0 .87.71 1 1 0 0 0 1-1.13v-1a1.46 1.46 0 0 1-1.36.83c-1.41 0-1.81-1.39-1.81-3 0-1.32.2-3.1 1.92-3.1a1.34 1.34 0 0 1 1.32.9v-.74h1.14v5.73c0 1.47-.62 2.35-2.25 2.35-1.79 0-2-1.05-2-1.54Zm.85-1.53c.94 0 1-1.18 1-2.13s-.12-2.08-1-2.08-1 .9-1 2 .11 2.21 1 2.21ZM270.47 36.09h1.25l.84 4.74.9-4.74h1.36l.9 4.74.83-4.74h1.21l-1.38 6h-1.35l-.94-4.68-.86 4.68h-1.41ZM279.64 39.26v.34c0 .81.1 1.84 1 1.84s1-1 1-1.34h1.15a2 2 0 0 1-2.12 2.17c-1 0-2.21-.29-2.21-3.08 0-1.58.34-3.26 2.23-3.26 1.68 0 2.13 1 2.13 2.69v.64Zm1.94-.83v-.33c0-.76-.25-1.34-.93-1.34s-1 .76-1 1.55v.12ZM289.1 41.37a1.3 1.3 0 0 1-1.32.9c-1.41 0-2-1.18-2-3.25 0-2.67.94-3.09 1.86-3.09a1.4 1.4 0 0 1 1.36.86v-2.67h1.21v8h-1.11Zm-1.1-4.48c-.69 0-.94.56-.94 2.19 0 1.36.18 2.22 1 2.22s1-.85 1-2.13c.04-1.45-.13-2.28-1.06-2.28ZM293.47 35.93c1.75 0 2.25 1.3 2.25 3.17s-.57 3.17-2.25 3.17-2.24-1.3-2.24-3.17.49-3.17 2.24-3.17Zm0 5.44c.88 0 1-.74 1-2.27 0-1.33-.16-2.27-1-2.27s-1 .94-1 2.27c-.03 1.53.12 2.27 1 2.27ZM296.63 40.63h1.27v1.48h-1.27Z"/></g></g></g></svg>