<svg width="73" height="72" fill="none" xmlns="http://www.w3.org/2000/svg"><path d="M29.5 42C37.497 42 44 35.721 44 28s-6.503-14-14.5-14S15 20.279 15 28s6.503 14 14.5 14Zm0-21c3.998 0 7.25 3.14 7.25 7s-3.252 7-7.25 7-7.25-3.14-7.25-7 3.252-7 7.25-7Z" fill="#d13b3b"/><path d="M27.434 70.34a3.564 3.564 0 0 0 4.132 0C32.65 69.577 58.103 51.262 58 28.4 58 12.741 45.214 0 29.5 0S1 12.741 1 28.383C.897 51.263 26.35 69.577 27.434 70.34ZM29.5 7.1c11.788 0 21.375 9.553 21.375 21.318C50.95 44.173 35.243 58.32 29.5 62.96 23.76 58.316 8.05 44.166 8.125 28.4c0-11.747 9.587-21.3 21.375-21.3Z" fill="#d13b3b"/></svg>