<svg width="72" height="72" fill="none" xmlns="http://www.w3.org/2000/svg"><path d="M55.93 38.995a3.785 3.785 0 0 0-5.357 0l-6.039 6.038c-2.8-.833-8.024-2.727-11.335-6.038-3.31-3.311-5.205-8.536-6.038-11.335l6.038-6.039a3.784 3.784 0 0 0 0-5.357L18.046 1.111a3.784 3.784 0 0 0-5.357 0L2.415 11.385a7.571 7.571 0 0 0-2.22 5.436c.087 5.395 1.515 24.132 16.282 38.9C31.244 70.487 49.982 71.911 55.38 72.002h.106c2 0 3.891-.788 5.323-2.22l10.274-10.274a3.785 3.785 0 0 0 0-5.357L55.93 38.995Zm-.482 25.427c-4.727-.08-20.904-1.348-33.614-14.062C9.082 37.608 7.847 21.375 7.771 16.742l7.596-7.596 9.797 9.797-4.898 4.898a3.789 3.789 0 0 0-1.03 3.455c.09.436 2.314 10.767 8.603 17.056 6.288 6.288 16.62 8.512 17.055 8.603a3.754 3.754 0 0 0 3.455-1.027l4.902-4.898 9.797 9.797-7.6 7.595Z" fill="#d13b3b"/></svg>