<svg xmlns="http://www.w3.org/2000/svg" width="38" height="51" fill="none"><path fill="#000" d="M19.707.293a1 1 0 0 0-1.414 0l-6.364 6.364a1 1 0 0 0 1.414 1.414L19 2.414l5.657 5.657a1 1 0 1 0 1.414-1.414L19.707.293ZM18 1v50h2V1h-2Z"/><path fill="#C63031" d="M37.707 32.293a1 1 0 0 1 0 1.414l-6.364 6.364a1 1 0 0 1-1.414-1.414L35.586 33l-5.657-5.657a1 1 0 0 1 1.414-1.414l6.364 6.364ZM37 34c-9.389 0-17 7.611-17 17h-2c0-10.493 8.507-19 19-19v2Z"/><path fill="#C63031" d="M.293 18.293a1 1 0 0 0 0 1.414l6.364 6.364a1 1 0 0 0 1.414-1.414L2.414 19l5.657-5.657a1 1 0 1 0-1.414-1.414L.293 18.293ZM1 20c9.389 0 17 7.611 17 17h2c0-10.493-8.507-19-19-19v2Zm17 17v14h2V37h-2Z"/></svg>