<svg width="48" height="48" fill="none" xmlns="http://www.w3.org/2000/svg"><mask id="a" fill="#fff"><path fill-rule="evenodd" clip-rule="evenodd" d="M30.156 30.364a13.191 13.191 0 0 0 7.036-11.671C37.192 11.407 31.286 5.5 24 5.5c-7.286 0-13.192 5.907-13.192 13.193 0 5.062 2.851 9.459 7.036 11.67v7.68a2.639 2.639 0 0 0 2.638 2.638h7.036a2.639 2.639 0 0 0 2.639-2.639v-7.678Z"/></mask><path d="m30.156 30.364-.935-1.768-1.065.563v1.205h2Zm-12.313 0h2v-1.205l-1.066-.563-.934 1.768Zm17.35-11.671c0 4.292-2.416 8.023-5.972 9.903l1.87 3.536c4.814-2.545 8.101-7.606 8.101-13.44h-4ZM23.998 7.5c6.182 0 11.193 5.011 11.193 11.193h4C39.192 10.302 32.39 3.5 24 3.5v4ZM12.807 18.693c0-6.182 5.01-11.193 11.192-11.193v-4c-8.39 0-15.192 6.802-15.192 15.193h4Zm5.97 9.903a11.191 11.191 0 0 1-5.97-9.903h-4c0 5.833 3.287 10.894 8.101 13.44l1.87-3.537Zm1.066 9.446v-7.678h-4v7.678h4Zm.638.639a.639.639 0 0 1-.638-.639h-4a4.638 4.638 0 0 0 4.638 4.639v-4Zm7.036 0h-7.036v4h7.036v-4Zm.639-.639a.639.639 0 0 1-.639.639v4a4.638 4.638 0 0 0 4.639-4.639h-4Zm0-7.678v7.678h4v-7.678h-4Z" fill="#2E2E2E" mask="url(#a)"/><path d="M24 35.404V22.211m0 0-3.519-3.518M24 22.211l3.519-3.518" stroke="#C63031" stroke-width="2" stroke-linecap="round" stroke-linejoin="round"/><path d="M18.723 35.404h10.554" stroke="#2E2E2E" stroke-width="2"/><path d="M20.433 40.172C20.699 40.838 21.503 43 24 43v-2c-1.022 0-1.39-.77-1.71-1.57l-1.857.742ZM24 43c1.193 0 2.073-.51 2.66-1.148a4.006 4.006 0 0 0 .959-1.855l-1.961-.392c-.043.212-.19.588-.47.893-.256.279-.622.502-1.188.502v2Z" fill="#2E2E2E"/></svg>