<svg xmlns="http://www.w3.org/2000/svg" width="48" height="48" fill="none"><path d="M5 18c0-6.627 5.373-12 12-12h2a3 3 0 0 1 3 3v30a3 3 0 0 1-3 3h-2c-6.627 0-12-5.373-12-12V18ZM31 42h-5c-2.21 0-4-1.697-4-3.79V9.79C22 7.696 23.79 6 26 6h5" stroke="#2E2E2E" stroke-width="2"/><path d="M5.5 20H11a4 4 0 0 0 4-4v-2M22 28h-2a4 4 0 0 0-4 4v2M22.5 20H19M36 24H23M23 17h7l6.5-5.5M23 31h7l6.5 5.5M10.5 29H5" stroke="#2E2E2E" stroke-width="2"/><circle cx="39" cy="9" r="3" stroke="#C63031" stroke-width="2"/><circle cx="39" cy="24" r="3" stroke="#C63031" stroke-width="2"/><circle r="3" transform="matrix(1 0 0 -1 39 39)" stroke="#C63031" stroke-width="2"/></svg>