<svg xmlns="http://www.w3.org/2000/svg" width="40" height="50" fill="none"><circle cx="19.223" cy="24.937" r="3.837" fill="#C63031"/><path fill="#000" d="M.684 18.311a1 1 0 0 0 1 1h9a1 1 0 1 0 0-2h-8v-8a1 1 0 0 0-2 0v9Zm1.708.708c9.722-9.723 25.486-9.723 35.208 0l1.415-1.415C28.51 7.101 11.48 7.101.977 17.604l1.415 1.415ZM38.623 31.688a1 1 0 0 0-1-1h-9a1 1 0 1 0 0 2h8v8a1 1 0 1 0 2 0v-9Zm-1.707-.707c-9.723 9.723-25.486 9.723-35.209 0L.293 32.395c10.504 10.504 27.534 10.504 38.037 0l-1.414-1.414Z"/></svg>