<svg width="50" height="41" fill="none" xmlns="http://www.w3.org/2000/svg"><rect x="6.789" y="8.223" width="7.949" height="11.928" rx="1.245" stroke="#2E2E2E" stroke-width="2"/><mask id="a" fill="#fff"><path d="M-.172 26.163c0-1.126.63-2.157 1.664-2.604 2.177-.942 6.09-2.415 9.28-2.415 3.19 0 7.103 1.473 9.28 2.415 1.033.447 1.663 1.478 1.663 2.604v10.9H-.172v-10.9Z"/></mask><path d="M21.715 37.063v2h2v-2h-2Zm-21.887 0h-2v2h2v-2Zm19.887-10.9v10.9h4v-10.9h-4Zm2 8.9H-.172v4h21.887v-4Zm-19.887 2v-10.9h-4v10.9h4Zm.458-11.668c2.173-.94 5.749-2.25 8.486-2.25v-4c-3.643 0-7.893 1.635-10.074 2.579l1.588 3.67Zm8.486-2.25c2.737 0 6.313 1.31 8.486 2.25l1.588-3.671c-2.181-.944-6.432-2.58-10.074-2.58v4Zm12.943 3.018c0-1.865-1.051-3.653-2.869-4.44l-1.588 3.672c.248.108.457.381.457.768h4Zm-21.887 0c0-.387.21-.66.458-.768L.698 21.724c-1.818.786-2.87 2.574-2.87 4.44h4Z" fill="#2E2E2E" mask="url(#a)"/><rect x="27.047" y="1" width="10.357" height="15.3" rx="1.245" stroke="#C63031" stroke-width="2"/><mask id="b" fill="#fff"><path d="M18.648 23.086c0-1.126.632-2.156 1.661-2.612 2.6-1.152 7.763-3.177 11.932-3.177 4.169 0 9.333 2.025 11.932 3.177 1.03.456 1.66 1.486 1.66 2.612v13.982H18.649V23.086Z"/></mask><path d="M45.834 37.068v2h2v-2h-2Zm-27.186 0h-2v2h2v-2Zm25.186-13.982v13.982h4V23.086h-4Zm2 11.982H18.648v4h27.186v-4Zm-25.186 2V23.086h-4v13.982h4Zm.471-14.766c2.605-1.154 7.42-3.005 11.122-3.005v-4c-4.636 0-10.148 2.199-12.742 3.348l1.62 3.657Zm11.122-3.005c3.702 0 8.517 1.851 11.122 3.005l1.62-3.657c-2.594-1.149-8.106-3.348-12.742-3.348v4Zm15.593 3.79c0-1.869-1.054-3.646-2.851-4.442l-1.62 3.657c.262.117.47.4.47.784h4Zm-27.186 0c0-.385.209-.668.471-.785l-1.62-3.657c-1.797.796-2.85 2.573-2.85 4.441h4Z" fill="#C63031" mask="url(#b)"/></svg>