<svg xmlns="http://www.w3.org/2000/svg" width="48" height="48" viewBox="0 0 48 48" fill="none"><path d="M5 18C5 11.3726 10.3726 6 17 6H19C20.6569 6 22 7.34315 22 9V39C22 40.6569 20.6569 42 19 42H17C10.3726 42 5 36.6274 5 30V18Z" stroke="#2E2E2E" stroke-width="2"></path><path d="M31 42H26C23.7909 42 22 40.3034 22 38.2105V9.78947C22 7.69661 23.7909 6 26 6H31" stroke="#2E2E2E" stroke-width="2"></path><path d="M5.5 20H11C13.2091 20 15 18.2091 15 16V14" stroke="#2E2E2E" stroke-width="2"></path><path d="M22 28H20C17.7909 28 16 29.7909 16 32V34" stroke="#2E2E2E" stroke-width="2"></path><path d="M22.5 20H19" stroke="#2E2E2E" stroke-width="2"></path><path d="M36 24H23" stroke="#2E2E2E" stroke-width="2"></path><path d="M23 17L30 17L36.5 11.5" stroke="#2E2E2E" stroke-width="2"></path><path d="M23 31L30 31L36.5 36.5" stroke="#2E2E2E" stroke-width="2"></path><path d="M10.5 29H5" stroke="#2E2E2E" stroke-width="2"></path><circle cx="39" cy="9" r="3" stroke="#C63031" stroke-width="2"></circle><circle cx="39" cy="24" r="3" stroke="#C63031" stroke-width="2"></circle><circle r="3" transform="matrix(1 0 0 -1 39 39)" stroke="#C63031" stroke-width="2"></circle></svg>